<?xml version="1.0" encoding="utf-8"?>
<!-- Generator: Adobe Illustrator 16.0.0, SVG Export Plug-In . SVG Version: 6.00 Build 0)  -->
<!DOCTYPE svg PUBLIC "-//W3C//DTD SVG 1.1//EN" "http://www.w3.org/Graphics/SVG/1.1/DTD/svg11.dtd">
<svg version="1.1" id="_x31__x2F_3_copy" xmlns="http://www.w3.org/2000/svg" xmlns:xlink="http://www.w3.org/1999/xlink" x="0px"
	 y="0px" width="400px" height="400px" viewBox="0 0 400 400" enable-background="new 0 0 400 400" xml:space="preserve">
<path d="M390,0H10C4.477,0,0,4.477,0,10v380c0,5.522,4.477,10,10,10h380c5.522,0,10-4.478,10-10V10C400,4.477,395.522,0,390,0z
	 M380,379.999H20V20h360V379.999z M296.399,252c0-1.988,1.611-3.6,3.601-3.6c1.988,0,3.601,1.611,3.601,3.6
	c0,1.99-1.612,3.6-3.601,3.6C298.011,255.6,296.399,253.99,296.399,252z M296.399,156c0-1.988,1.611-3.6,3.601-3.6
	c1.988,0,3.601,1.611,3.601,3.6c0,1.99-1.612,3.6-3.601,3.6C298.011,159.6,296.399,157.99,296.399,156z M296.399,132
	c0-1.988,1.611-3.6,3.601-3.6c1.988,0,3.601,1.611,3.601,3.6c0,1.99-1.612,3.6-3.601,3.6C298.011,135.6,296.399,133.99,296.399,132z
	 M296.399,84c0-1.988,1.611-3.6,3.601-3.6c1.988,0,3.601,1.611,3.601,3.6c0,1.99-1.612,3.6-3.601,3.6
	C298.011,87.6,296.399,85.99,296.399,84z M296.399,204c0-1.988,1.611-3.6,3.601-3.6c1.988,0,3.601,1.611,3.601,3.6
	c0,1.99-1.612,3.6-3.601,3.6C298.011,207.6,296.399,205.99,296.399,204z M296.399,228c0-1.988,1.611-3.6,3.601-3.6
	c1.988,0,3.601,1.611,3.601,3.6c0,1.99-1.612,3.6-3.601,3.6C298.011,231.6,296.399,229.99,296.399,228z M296.399,36
	c0-1.988,1.611-3.6,3.601-3.6c1.988,0,3.601,1.611,3.601,3.6c0,1.99-1.612,3.6-3.601,3.6C298.011,39.6,296.399,37.99,296.399,36z
	 M284.399,24c0-1.988,1.611-3.6,3.601-3.6c0.87,0,1.657,0.321,2.279,0.834c0.8,0.66,1.321,1.647,1.321,2.765
	c0,1.12-0.521,2.106-1.321,2.766C289.657,27.279,288.87,27.6,288,27.6C286.011,27.6,284.399,25.99,284.399,24z M296.399,180
	c0-1.988,1.611-3.6,3.601-3.6c1.988,0,3.601,1.611,3.601,3.6c0,1.99-1.612,3.6-3.601,3.6C298.011,183.6,296.399,181.99,296.399,180z
	 M296.399,108c0-1.988,1.611-3.6,3.601-3.6c1.988,0,3.601,1.611,3.601,3.6c0,1.99-1.612,3.6-3.601,3.6
	C298.011,111.6,296.399,109.99,296.399,108z M284.399,120c0-1.988,1.611-3.6,3.601-3.6c0.87,0,1.657,0.321,2.279,0.834
	c0.8,0.66,1.321,1.647,1.321,2.765c0,1.12-0.521,2.106-1.321,2.766c-0.622,0.513-1.409,0.834-2.279,0.834
	C286.011,123.6,284.399,121.99,284.399,120z M284.399,168c0-1.988,1.611-3.6,3.601-3.6c0.87,0,1.657,0.321,2.279,0.834
	c0.8,0.66,1.321,1.647,1.321,2.765c0,1.12-0.521,2.106-1.321,2.766c-0.622,0.513-1.409,0.834-2.279,0.834
	C286.011,171.6,284.399,169.99,284.399,168z M284.399,216c0-1.988,1.611-3.6,3.601-3.6c0.87,0,1.657,0.321,2.279,0.834
	c0.8,0.66,1.321,1.647,1.321,2.766c0,1.119-0.521,2.105-1.321,2.766c-0.622,0.514-1.409,0.834-2.279,0.834
	C286.011,219.6,284.399,217.99,284.399,216z M308.399,360c0-1.988,1.611-3.6,3.601-3.6c1.988,0,3.601,1.611,3.601,3.6
	c0,1.99-1.612,3.6-3.601,3.6C310.011,363.6,308.399,361.99,308.399,360z M284.399,360c0-1.988,1.611-3.6,3.601-3.6
	c0.87,0,1.657,0.321,2.279,0.834c0.8,0.66,1.321,1.647,1.321,2.766c0,1.119-0.521,2.105-1.321,2.766
	c-0.622,0.514-1.409,0.834-2.279,0.834C286.011,363.6,284.399,361.99,284.399,360z M296.399,60c0-1.988,1.611-3.6,3.601-3.6
	c1.988,0,3.601,1.611,3.601,3.6c0,1.99-1.612,3.6-3.601,3.6C298.011,63.6,296.399,61.99,296.399,60z M284.399,264
	c0-1.988,1.611-3.6,3.601-3.6c0.87,0,1.657,0.321,2.279,0.834c0.8,0.66,1.321,1.647,1.321,2.766c0,1.119-0.521,2.105-1.321,2.766
	c-0.622,0.514-1.409,0.834-2.279,0.834C286.011,267.6,284.399,265.99,284.399,264z M284.399,312c0-1.988,1.611-3.6,3.601-3.6
	c0.87,0,1.657,0.321,2.279,0.834c0.8,0.66,1.321,1.647,1.321,2.766c0,1.119-0.521,2.105-1.321,2.766
	c-0.622,0.514-1.409,0.834-2.279,0.834C286.011,315.6,284.399,313.99,284.399,312z M296.399,276c0-1.988,1.611-3.6,3.601-3.6
	c1.988,0,3.601,1.611,3.601,3.6c0,1.99-1.612,3.6-3.601,3.6C298.011,279.6,296.399,277.99,296.399,276z M308.399,264
	c0-1.988,1.611-3.6,3.601-3.6c1.988,0,3.601,1.611,3.601,3.6c0,1.99-1.612,3.6-3.601,3.6C310.011,267.6,308.399,265.99,308.399,264z
	 M308.399,48.001L308.399,48.001L308.399,48.001c0-1.989,1.611-3.601,3.601-3.601c1.988,0,3.601,1.611,3.601,3.6v0v0
	c0,1.99-1.612,3.6-3.601,3.6C310.011,51.601,308.399,49.991,308.399,48.001z M308.399,144.001L308.399,144.001L308.399,144.001
	c0-1.989,1.611-3.601,3.601-3.601c1.988,0,3.601,1.611,3.601,3.6v0v0c0,1.99-1.612,3.6-3.601,3.6
	C310.011,147.601,308.399,145.991,308.399,144.001z M308.399,24c0-1.988,1.611-3.6,3.601-3.6c1.988,0,3.601,1.611,3.601,3.6
	c0,1.99-1.612,3.6-3.601,3.6C310.011,27.6,308.399,25.99,308.399,24z M308.399,216c0-1.988,1.611-3.6,3.601-3.6
	c1.988,0,3.601,1.611,3.601,3.6c0,1.99-1.612,3.6-3.601,3.6C310.011,219.6,308.399,217.99,308.399,216z M308.399,168
	c0-1.988,1.611-3.6,3.601-3.6c1.988,0,3.601,1.611,3.601,3.6c0,1.99-1.612,3.6-3.601,3.6C310.011,171.6,308.399,169.99,308.399,168z
	 M308.399,192.001L308.399,192.001L308.399,192.001c0-1.989,1.611-3.601,3.601-3.601c1.988,0,3.601,1.611,3.601,3.6v0v0
	c0,1.99-1.612,3.6-3.601,3.6C310.011,195.601,308.399,193.991,308.399,192.001z M308.399,72c0-1.988,1.611-3.6,3.601-3.6
	c1.988,0,3.601,1.611,3.601,3.6c0,1.99-1.612,3.6-3.601,3.6C310.011,75.6,308.399,73.99,308.399,72z M308.399,120
	c0-1.988,1.611-3.6,3.601-3.6c1.988,0,3.601,1.611,3.601,3.6c0,1.99-1.612,3.6-3.601,3.6C310.011,123.6,308.399,121.99,308.399,120z
	 M308.399,96.001L308.399,96.001L308.399,96.001c0-1.989,1.611-3.601,3.601-3.601c1.988,0,3.601,1.611,3.601,3.6v0v0
	c0,1.99-1.612,3.6-3.601,3.6C310.011,99.601,308.399,97.991,308.399,96.001z M308.399,312c0-1.988,1.611-3.6,3.601-3.6
	c1.988,0,3.601,1.611,3.601,3.6c0,1.99-1.612,3.6-3.601,3.6C310.011,315.6,308.399,313.99,308.399,312z M296.399,372
	c0-1.988,1.611-3.6,3.601-3.6c1.988,0,3.601,1.611,3.601,3.6c0,1.99-1.612,3.6-3.601,3.6C298.011,375.6,296.399,373.99,296.399,372z
	 M296.399,348c0-1.988,1.611-3.6,3.601-3.6c1.988,0,3.601,1.611,3.601,3.6c0,1.99-1.612,3.6-3.601,3.6
	C298.011,351.6,296.399,349.99,296.399,348z M296.399,300c0-1.988,1.611-3.6,3.601-3.6c1.988,0,3.601,1.611,3.601,3.6
	c0,1.99-1.612,3.6-3.601,3.6C298.011,303.6,296.399,301.99,296.399,300z M296.399,324c0-1.988,1.611-3.6,3.601-3.6
	c1.988,0,3.601,1.611,3.601,3.6c0,1.99-1.612,3.6-3.601,3.6C298.011,327.6,296.399,325.99,296.399,324z M308.399,336.001
	C308.399,336.001,308.399,336.001,308.399,336.001c0-1.989,1.611-3.601,3.601-3.601c1.988,0,3.601,1.611,3.601,3.6
	c0,0.001,0,0.001,0,0.001c0,1.99-1.612,3.6-3.601,3.6C310.011,339.601,308.399,337.991,308.399,336.001z M308.399,240.001
	C308.399,240.001,308.399,240.001,308.399,240.001c0-1.989,1.611-3.601,3.601-3.601c1.988,0,3.601,1.611,3.601,3.6
	c0,0.001,0,0.001,0,0.001c0,1.99-1.612,3.6-3.601,3.6C310.011,243.601,308.399,241.991,308.399,240.001z M308.399,288.001
	C308.399,288.001,308.399,288.001,308.399,288.001c0-1.989,1.611-3.601,3.601-3.601c1.988,0,3.601,1.611,3.601,3.6
	c0,0.001,0,0.001,0,0.001c0,1.99-1.612,3.6-3.601,3.6C310.011,291.601,308.399,289.991,308.399,288.001z M284.399,72
	c0-1.988,1.611-3.6,3.601-3.6c0.87,0,1.657,0.321,2.279,0.834c0.8,0.66,1.321,1.647,1.321,2.765c0,1.12-0.521,2.106-1.321,2.766
	C289.657,75.279,288.87,75.6,288,75.6C286.011,75.6,284.399,73.99,284.399,72z M260.399,168c0-1.988,1.611-3.6,3.601-3.6
	c1.988,0,3.601,1.611,3.601,3.6c0,1.99-1.612,3.6-3.601,3.6C262.011,171.6,260.399,169.99,260.399,168z M260.399,216
	c0-1.988,1.611-3.6,3.601-3.6c1.988,0,3.601,1.611,3.601,3.6c0,1.99-1.612,3.6-3.601,3.6C262.011,219.6,260.399,217.99,260.399,216z
	 M260.399,72c0-1.988,1.611-3.6,3.601-3.6c1.988,0,3.601,1.611,3.601,3.6c0,1.99-1.612,3.6-3.601,3.6
	C262.011,75.6,260.399,73.99,260.399,72z M260.399,120c0-1.988,1.611-3.6,3.601-3.6c1.988,0,3.601,1.611,3.601,3.6
	c0,1.99-1.612,3.6-3.601,3.6C262.011,123.6,260.399,121.99,260.399,120z M260.399,264c0-1.988,1.611-3.6,3.601-3.6
	c1.988,0,3.601,1.611,3.601,3.6c0,1.99-1.612,3.6-3.601,3.6C262.011,267.6,260.399,265.99,260.399,264z M272.399,36
	c0-1.988,1.611-3.6,3.601-3.6c1.988,0,3.6,1.611,3.6,3.6c0,1.99-1.611,3.6-3.6,3.6C274.011,39.6,272.399,37.99,272.399,36z
	 M260.399,312c0-1.988,1.611-3.6,3.601-3.6c1.988,0,3.601,1.611,3.601,3.6c0,1.99-1.612,3.6-3.601,3.6
	C262.011,315.6,260.399,313.99,260.399,312z M272.399,84c0-1.988,1.611-3.6,3.601-3.6c1.988,0,3.6,1.611,3.6,3.6
	c0,1.99-1.611,3.6-3.6,3.6C274.011,87.6,272.399,85.99,272.399,84z M260.399,360c0-1.988,1.611-3.6,3.601-3.6
	c1.988,0,3.601,1.611,3.601,3.6c0,1.99-1.612,3.6-3.601,3.6C262.011,363.6,260.399,361.99,260.399,360z M272.399,60
	c0-1.988,1.611-3.6,3.601-3.6c1.988,0,3.6,1.611,3.6,3.6c0,1.99-1.611,3.6-3.6,3.6C274.011,63.6,272.399,61.99,272.399,60z
	 M260.399,24c0-1.988,1.611-3.6,3.601-3.6c1.988,0,3.601,1.611,3.601,3.6c0,1.99-1.612,3.6-3.601,3.6
	C262.011,27.6,260.399,25.99,260.399,24z M260.399,240.001C260.399,240.001,260.399,240.001,260.399,240.001
	c0-1.989,1.611-3.601,3.601-3.601c1.988,0,3.601,1.611,3.601,3.6c0,0.001,0,0.001,0,0.001c0,1.99-1.612,3.6-3.601,3.6
	C262.011,243.601,260.399,241.991,260.399,240.001z M260.399,288.001C260.399,288.001,260.399,288.001,260.399,288.001
	c0-1.989,1.611-3.601,3.601-3.601c1.988,0,3.601,1.611,3.601,3.6c0,0.001,0,0.001,0,0.001c0,1.99-1.612,3.6-3.601,3.6
	C262.011,291.601,260.399,289.991,260.399,288.001z M260.399,336.001C260.399,336.001,260.399,336.001,260.399,336.001
	c0-1.989,1.611-3.601,3.601-3.601c1.988,0,3.601,1.611,3.601,3.6c0,0.001,0,0.001,0,0.001c0,1.99-1.612,3.6-3.601,3.6
	C262.011,339.601,260.399,337.991,260.399,336.001z M260.399,192.001L260.399,192.001L260.399,192.001
	c0-1.989,1.611-3.601,3.601-3.601c1.988,0,3.601,1.611,3.601,3.6v0v0c0,1.99-1.612,3.6-3.601,3.6
	C262.011,195.601,260.399,193.991,260.399,192.001z M260.399,48.001L260.399,48.001L260.399,48.001c0-1.989,1.611-3.601,3.601-3.601
	c1.988,0,3.601,1.611,3.601,3.6v0v0c0,1.99-1.612,3.6-3.601,3.6C262.011,51.601,260.399,49.991,260.399,48.001z M260.399,144.001
	L260.399,144.001L260.399,144.001c0-1.989,1.611-3.601,3.601-3.601c1.988,0,3.601,1.611,3.601,3.6v0v0c0,1.99-1.612,3.6-3.601,3.6
	C262.011,147.601,260.399,145.991,260.399,144.001z M284.399,48.001L284.399,48.001L284.399,48.001c0-1.989,1.611-3.601,3.601-3.601
	c0.87,0,1.657,0.321,2.279,0.834c0.8,0.66,1.321,1.647,1.321,2.765v0v0c0,1.12-0.521,2.106-1.321,2.766
	c-0.622,0.513-1.409,0.834-2.279,0.834C286.011,51.601,284.399,49.991,284.399,48.001z M260.399,96.001L260.399,96.001
	L260.399,96.001c0-1.989,1.611-3.601,3.601-3.601c1.988,0,3.601,1.611,3.601,3.6v0v0c0,1.99-1.612,3.6-3.601,3.6
	C262.011,99.601,260.399,97.991,260.399,96.001z M284.399,336.001C284.399,336.001,284.399,336.001,284.399,336.001
	c0-1.989,1.611-3.601,3.601-3.601c0.87,0,1.657,0.321,2.279,0.834c0.8,0.66,1.321,1.647,1.321,2.766c0,0.001,0,0.001,0,0.001
	c0,1.119-0.521,2.105-1.321,2.766c-0.622,0.514-1.409,0.834-2.279,0.834C286.011,339.601,284.399,337.991,284.399,336.001z
	 M272.399,372c0-1.988,1.611-3.6,3.601-3.6c1.988,0,3.6,1.611,3.6,3.6c0,1.99-1.611,3.6-3.6,3.6
	C274.011,375.6,272.399,373.99,272.399,372z M272.399,348c0-1.988,1.611-3.6,3.601-3.6c1.988,0,3.6,1.611,3.6,3.6
	c0,1.99-1.611,3.6-3.6,3.6C274.011,351.6,272.399,349.99,272.399,348z M284.399,288.001
	C284.399,288.001,284.399,288.001,284.399,288.001c0-1.989,1.611-3.601,3.601-3.601c0.87,0,1.657,0.321,2.279,0.834
	c0.8,0.66,1.321,1.647,1.321,2.766c0,0.001,0,0.001,0,0.001c0,1.119-0.521,2.105-1.321,2.766c-0.622,0.514-1.409,0.834-2.279,0.834
	C286.011,291.601,284.399,289.991,284.399,288.001z M284.399,240.001C284.399,240.001,284.399,240.001,284.399,240.001
	c0-1.989,1.611-3.601,3.601-3.601c0.87,0,1.657,0.321,2.279,0.834c0.8,0.66,1.321,1.647,1.321,2.766c0,0.001,0,0.001,0,0.001
	c0,1.119-0.521,2.105-1.321,2.766c-0.622,0.514-1.409,0.834-2.279,0.834C286.011,243.601,284.399,241.991,284.399,240.001z
	 M272.399,324c0-1.988,1.611-3.6,3.601-3.6c1.988,0,3.6,1.611,3.6,3.6c0,1.99-1.611,3.6-3.6,3.6
	C274.011,327.6,272.399,325.99,272.399,324z M284.399,144.001L284.399,144.001L284.399,144.001c0-1.989,1.611-3.601,3.601-3.601
	c0.87,0,1.657,0.321,2.279,0.834c0.8,0.66,1.321,1.647,1.321,2.765v0v0c0,1.12-0.521,2.106-1.321,2.766
	c-0.622,0.513-1.409,0.834-2.279,0.834C286.011,147.601,284.399,145.991,284.399,144.001z M284.399,96.001L284.399,96.001
	L284.399,96.001c0-1.989,1.611-3.601,3.601-3.601c0.87,0,1.657,0.321,2.279,0.834c0.8,0.66,1.321,1.647,1.321,2.765v0v0
	c0,1.12-0.521,2.106-1.321,2.766c-0.622,0.513-1.409,0.834-2.279,0.834C286.011,99.601,284.399,97.991,284.399,96.001z
	 M284.399,192.001L284.399,192.001L284.399,192.001c0-1.989,1.611-3.601,3.601-3.601c0.87,0,1.657,0.321,2.279,0.834
	c0.8,0.66,1.321,1.647,1.321,2.765v0v0c0,1.12-0.521,2.106-1.321,2.766c-0.622,0.513-1.409,0.834-2.279,0.834
	C286.011,195.601,284.399,193.991,284.399,192.001z M272.399,228c0-1.988,1.611-3.6,3.601-3.6c1.988,0,3.6,1.611,3.6,3.6
	c0,1.99-1.611,3.6-3.6,3.6C274.011,231.6,272.399,229.99,272.399,228z M272.399,204c0-1.988,1.611-3.6,3.601-3.6
	c1.988,0,3.6,1.611,3.6,3.6c0,1.99-1.611,3.6-3.6,3.6C274.011,207.6,272.399,205.99,272.399,204z M272.399,180
	c0-1.988,1.611-3.6,3.601-3.6c1.988,0,3.6,1.611,3.6,3.6c0,1.99-1.611,3.6-3.6,3.6C274.011,183.6,272.399,181.99,272.399,180z
	 M272.399,156c0-1.988,1.611-3.6,3.601-3.6c1.988,0,3.6,1.611,3.6,3.6c0,1.99-1.611,3.6-3.6,3.6
	C274.011,159.6,272.399,157.99,272.399,156z M272.399,300c0-1.988,1.611-3.6,3.601-3.6c1.988,0,3.6,1.611,3.6,3.6
	c0,1.99-1.611,3.6-3.6,3.6C274.011,303.6,272.399,301.99,272.399,300z M272.399,132c0-1.988,1.611-3.6,3.601-3.6
	c1.988,0,3.6,1.611,3.6,3.6c0,1.99-1.611,3.6-3.6,3.6C274.011,135.6,272.399,133.99,272.399,132z M272.399,276
	c0-1.988,1.611-3.6,3.601-3.6c1.988,0,3.6,1.611,3.6,3.6c0,1.99-1.611,3.6-3.6,3.6C274.011,279.6,272.399,277.99,272.399,276z
	 M272.399,108c0-1.988,1.611-3.6,3.601-3.6c1.988,0,3.6,1.611,3.6,3.6c0,1.99-1.611,3.6-3.6,3.6
	C274.011,111.6,272.399,109.99,272.399,108z M272.399,252c0-1.988,1.611-3.6,3.601-3.6c1.988,0,3.6,1.611,3.6,3.6
	c0,1.99-1.611,3.6-3.6,3.6C274.011,255.6,272.399,253.99,272.399,252z M320.399,324c0-1.988,1.611-3.6,3.601-3.6
	c1.988,0,3.6,1.611,3.6,3.6c0,1.99-1.611,3.6-3.6,3.6C322.011,327.6,320.399,325.99,320.399,324z M356.399,96.001L356.399,96.001
	L356.399,96.001c0-1.989,1.611-3.601,3.601-3.601c1.988,0,3.601,1.611,3.601,3.6v0v0c0,1.99-1.612,3.6-3.601,3.6
	C358.011,99.601,356.399,97.991,356.399,96.001z M356.399,48.001L356.399,48.001L356.399,48.001c0-1.989,1.611-3.601,3.601-3.601
	c1.988,0,3.601,1.611,3.601,3.6v0v0c0,1.99-1.612,3.6-3.601,3.6C358.011,51.601,356.399,49.991,356.399,48.001z M356.399,144.001
	L356.399,144.001L356.399,144.001c0-1.989,1.611-3.601,3.601-3.601c1.988,0,3.601,1.611,3.601,3.6v0v0c0,1.99-1.612,3.6-3.601,3.6
	C358.011,147.601,356.399,145.991,356.399,144.001z M356.399,192.001L356.399,192.001L356.399,192.001
	c0-1.989,1.611-3.601,3.601-3.601c1.988,0,3.601,1.611,3.601,3.6v0v0c0,1.99-1.612,3.6-3.601,3.6
	C358.011,195.601,356.399,193.991,356.399,192.001z M356.399,120c0-1.988,1.611-3.6,3.601-3.6c1.988,0,3.601,1.611,3.601,3.6
	c0,1.99-1.612,3.6-3.601,3.6C358.011,123.6,356.399,121.99,356.399,120z M356.399,168c0-1.988,1.611-3.6,3.601-3.6
	c1.988,0,3.601,1.611,3.601,3.6c0,1.99-1.612,3.6-3.601,3.6C358.011,171.6,356.399,169.99,356.399,168z M356.399,72
	c0-1.988,1.611-3.6,3.601-3.6c1.988,0,3.601,1.611,3.601,3.6c0,1.99-1.612,3.6-3.601,3.6C358.011,75.6,356.399,73.99,356.399,72z
	 M356.399,24c0-1.988,1.611-3.6,3.601-3.6c1.988,0,3.601,1.611,3.601,3.6c0,1.99-1.612,3.6-3.601,3.6
	C358.011,27.6,356.399,25.99,356.399,24z M344.399,372c0-1.988,1.611-3.6,3.601-3.6c1.988,0,3.601,1.611,3.601,3.6
	c0,1.99-1.612,3.6-3.601,3.6C346.011,375.6,344.399,373.99,344.399,372z M344.399,324c0-1.988,1.611-3.6,3.601-3.6
	c1.988,0,3.601,1.611,3.601,3.6c0,1.99-1.612,3.6-3.601,3.6C346.011,327.6,344.399,325.99,344.399,324z M344.399,300
	c0-1.988,1.611-3.6,3.601-3.6c1.988,0,3.601,1.611,3.601,3.6c0,1.99-1.612,3.6-3.601,3.6C346.011,303.6,344.399,301.99,344.399,300z
	 M344.399,276c0-1.988,1.611-3.6,3.601-3.6c1.988,0,3.601,1.611,3.601,3.6c0,1.99-1.612,3.6-3.601,3.6
	C346.011,279.6,344.399,277.99,344.399,276z M344.399,348c0-1.988,1.611-3.6,3.601-3.6c1.988,0,3.601,1.611,3.601,3.6
	c0,1.99-1.612,3.6-3.601,3.6C346.011,351.6,344.399,349.99,344.399,348z M356.399,240.001
	C356.399,240.001,356.399,240.001,356.399,240.001c0-1.989,1.611-3.601,3.601-3.601c1.988,0,3.601,1.611,3.601,3.6
	c0,0.001,0,0.001,0,0.001c0,1.99-1.612,3.6-3.601,3.6C358.011,243.601,356.399,241.991,356.399,240.001z M344.399,252
	c0-1.988,1.611-3.6,3.601-3.6c1.988,0,3.601,1.611,3.601,3.6c0,1.99-1.612,3.6-3.601,3.6C346.011,255.6,344.399,253.99,344.399,252z
	 M356.399,216c0-1.988,1.611-3.6,3.601-3.6c1.988,0,3.601,1.611,3.601,3.6c0,1.99-1.612,3.6-3.601,3.6
	C358.011,219.6,356.399,217.99,356.399,216z M356.399,336.001C356.399,336.001,356.399,336.001,356.399,336.001
	c0-1.989,1.611-3.601,3.601-3.601c1.988,0,3.601,1.611,3.601,3.6c0,0.001,0,0.001,0,0.001c0,1.99-1.612,3.6-3.601,3.6
	C358.011,339.601,356.399,337.991,356.399,336.001z M356.399,288.001C356.399,288.001,356.399,288.001,356.399,288.001
	c0-1.989,1.611-3.601,3.601-3.601c1.988,0,3.601,1.611,3.601,3.6c0,0.001,0,0.001,0,0.001c0,1.99-1.612,3.6-3.601,3.6
	C358.011,291.601,356.399,289.991,356.399,288.001z M368.399,204c0-1.988,1.611-3.6,3.601-3.6c1.988,0,3.6,1.611,3.6,3.6
	c0,1.99-1.611,3.6-3.6,3.6C370.011,207.6,368.399,205.99,368.399,204z M368.399,252c0-1.988,1.611-3.6,3.601-3.6
	c1.988,0,3.6,1.611,3.6,3.6c0,1.99-1.611,3.6-3.6,3.6C370.011,255.6,368.399,253.99,368.399,252z M368.399,228
	c0-1.988,1.611-3.6,3.601-3.6c1.988,0,3.6,1.611,3.6,3.6c0,1.99-1.611,3.6-3.6,3.6C370.011,231.6,368.399,229.99,368.399,228z
	 M368.399,300c0-1.988,1.611-3.6,3.601-3.6c1.988,0,3.6,1.611,3.6,3.6c0,1.99-1.611,3.6-3.6,3.6
	C370.011,303.6,368.399,301.99,368.399,300z M368.399,276c0-1.988,1.611-3.6,3.601-3.6c1.988,0,3.6,1.611,3.6,3.6
	c0,1.99-1.611,3.6-3.6,3.6C370.011,279.6,368.399,277.99,368.399,276z M368.399,36c0-1.988,1.611-3.6,3.601-3.6
	c1.988,0,3.6,1.611,3.6,3.6c0,1.99-1.611,3.6-3.6,3.6C370.011,39.6,368.399,37.99,368.399,36z M368.399,372
	c0-1.988,1.611-3.6,3.601-3.6c1.988,0,3.6,1.611,3.6,3.6c0,1.99-1.611,3.6-3.6,3.6C370.011,375.6,368.399,373.99,368.399,372z
	 M368.399,324c0-1.988,1.611-3.6,3.601-3.6c1.988,0,3.6,1.611,3.6,3.6c0,1.99-1.611,3.6-3.6,3.6
	C370.011,327.6,368.399,325.99,368.399,324z M368.399,348c0-1.988,1.611-3.6,3.601-3.6c1.988,0,3.6,1.611,3.6,3.6
	c0,1.99-1.611,3.6-3.6,3.6C370.011,351.6,368.399,349.99,368.399,348z M368.399,156c0-1.988,1.611-3.6,3.601-3.6
	c1.988,0,3.6,1.611,3.6,3.6c0,1.99-1.611,3.6-3.6,3.6C370.011,159.6,368.399,157.99,368.399,156z M368.399,84
	c0-1.988,1.611-3.6,3.601-3.6c1.988,0,3.6,1.611,3.6,3.6c0,1.99-1.611,3.6-3.6,3.6C370.011,87.6,368.399,85.99,368.399,84z
	 M356.399,360c0-1.988,1.611-3.6,3.601-3.6c1.988,0,3.601,1.611,3.601,3.6c0,1.99-1.612,3.6-3.601,3.6
	C358.011,363.6,356.399,361.99,356.399,360z M368.399,60c0-1.988,1.611-3.6,3.601-3.6c1.988,0,3.6,1.611,3.6,3.6
	c0,1.99-1.611,3.6-3.6,3.6C370.011,63.6,368.399,61.99,368.399,60z M356.399,312c0-1.988,1.611-3.6,3.601-3.6
	c1.988,0,3.601,1.611,3.601,3.6c0,1.99-1.612,3.6-3.601,3.6C358.011,315.6,356.399,313.99,356.399,312z M368.399,132
	c0-1.988,1.611-3.6,3.601-3.6c1.988,0,3.6,1.611,3.6,3.6c0,1.99-1.611,3.6-3.6,3.6C370.011,135.6,368.399,133.99,368.399,132z
	 M320.399,60c0-1.988,1.611-3.6,3.601-3.6c1.988,0,3.6,1.611,3.6,3.6c0,1.99-1.611,3.6-3.6,3.6
	C322.011,63.6,320.399,61.99,320.399,60z M356.399,264c0-1.988,1.611-3.6,3.601-3.6c1.988,0,3.601,1.611,3.601,3.6
	c0,1.99-1.612,3.6-3.601,3.6C358.011,267.6,356.399,265.99,356.399,264z M368.399,180c0-1.988,1.611-3.6,3.601-3.6
	c1.988,0,3.6,1.611,3.6,3.6c0,1.99-1.611,3.6-3.6,3.6C370.011,183.6,368.399,181.99,368.399,180z M368.399,108
	c0-1.988,1.611-3.6,3.601-3.6c1.988,0,3.6,1.611,3.6,3.6c0,1.99-1.611,3.6-3.6,3.6C370.011,111.6,368.399,109.99,368.399,108z
	 M320.399,348c0-1.988,1.611-3.6,3.601-3.6c1.988,0,3.6,1.611,3.6,3.6c0,1.99-1.611,3.6-3.6,3.6
	C322.011,351.6,320.399,349.99,320.399,348z M320.399,372c0-1.988,1.611-3.6,3.601-3.6c1.988,0,3.6,1.611,3.6,3.6
	c0,1.99-1.611,3.6-3.6,3.6C322.011,375.6,320.399,373.99,320.399,372z M344.399,228c0-1.988,1.611-3.6,3.601-3.6
	c1.988,0,3.601,1.611,3.601,3.6c0,1.99-1.612,3.6-3.601,3.6C346.011,231.6,344.399,229.99,344.399,228z M320.399,276
	c0-1.988,1.611-3.6,3.601-3.6c1.988,0,3.6,1.611,3.6,3.6c0,1.99-1.611,3.6-3.6,3.6C322.011,279.6,320.399,277.99,320.399,276z
	 M332.399,192.001L332.399,192.001L332.399,192.001c0-1.989,1.611-3.601,3.601-3.601c0.87,0,1.657,0.321,2.279,0.834
	c0.8,0.66,1.321,1.647,1.321,2.765v0v0c0,1.12-0.521,2.106-1.321,2.766c-0.622,0.513-1.409,0.834-2.279,0.834
	C334.011,195.601,332.399,193.991,332.399,192.001z M320.399,252c0-1.988,1.611-3.6,3.601-3.6c1.988,0,3.6,1.611,3.6,3.6
	c0,1.99-1.611,3.6-3.6,3.6C322.011,255.6,320.399,253.99,320.399,252z M332.399,144.001L332.399,144.001L332.399,144.001
	c0-1.989,1.611-3.601,3.601-3.601c0.87,0,1.657,0.321,2.279,0.834c0.8,0.66,1.321,1.647,1.321,2.765v0v0
	c0,1.12-0.521,2.106-1.321,2.766c-0.622,0.513-1.409,0.834-2.279,0.834C334.011,147.601,332.399,145.991,332.399,144.001z
	 M332.399,336.001C332.399,336.001,332.399,336.001,332.399,336.001c0-1.989,1.611-3.601,3.601-3.601
	c0.87,0,1.657,0.321,2.279,0.834c0.8,0.66,1.321,1.647,1.321,2.766c0,0.001,0,0.001,0,0.001c0,1.119-0.521,2.105-1.321,2.766
	c-0.622,0.514-1.409,0.834-2.279,0.834C334.011,339.601,332.399,337.991,332.399,336.001z M332.399,288.001
	C332.399,288.001,332.399,288.001,332.399,288.001c0-1.989,1.611-3.601,3.601-3.601c0.87,0,1.657,0.321,2.279,0.834
	c0.8,0.66,1.321,1.647,1.321,2.766c0,0.001,0,0.001,0,0.001c0,1.119-0.521,2.105-1.321,2.766c-0.622,0.514-1.409,0.834-2.279,0.834
	C334.011,291.601,332.399,289.991,332.399,288.001z M332.399,240.001C332.399,240.001,332.399,240.001,332.399,240.001
	c0-1.989,1.611-3.601,3.601-3.601c0.87,0,1.657,0.321,2.279,0.834c0.8,0.66,1.321,1.647,1.321,2.766c0,0.001,0,0.001,0,0.001
	c0,1.119-0.521,2.105-1.321,2.766c-0.622,0.514-1.409,0.834-2.279,0.834C334.011,243.601,332.399,241.991,332.399,240.001z
	 M320.399,108c0-1.988,1.611-3.6,3.601-3.6c1.988,0,3.6,1.611,3.6,3.6c0,1.99-1.611,3.6-3.6,3.6
	C322.011,111.6,320.399,109.99,320.399,108z M320.399,228c0-1.988,1.611-3.6,3.601-3.6c1.988,0,3.6,1.611,3.6,3.6
	c0,1.99-1.611,3.6-3.6,3.6C322.011,231.6,320.399,229.99,320.399,228z M320.399,36c0-1.988,1.611-3.6,3.601-3.6
	c1.988,0,3.6,1.611,3.6,3.6c0,1.99-1.611,3.6-3.6,3.6C322.011,39.6,320.399,37.99,320.399,36z M320.399,132
	c0-1.988,1.611-3.6,3.601-3.6c1.988,0,3.6,1.611,3.6,3.6c0,1.99-1.611,3.6-3.6,3.6C322.011,135.6,320.399,133.99,320.399,132z
	 M320.399,84c0-1.988,1.611-3.6,3.601-3.6c1.988,0,3.6,1.611,3.6,3.6c0,1.99-1.611,3.6-3.6,3.6
	C322.011,87.6,320.399,85.99,320.399,84z M320.399,204c0-1.988,1.611-3.6,3.601-3.6c1.988,0,3.6,1.611,3.6,3.6
	c0,1.99-1.611,3.6-3.6,3.6C322.011,207.6,320.399,205.99,320.399,204z M320.399,180c0-1.988,1.611-3.6,3.601-3.6
	c1.988,0,3.6,1.611,3.6,3.6c0,1.99-1.611,3.6-3.6,3.6C322.011,183.6,320.399,181.99,320.399,180z M320.399,156
	c0-1.988,1.611-3.6,3.601-3.6c1.988,0,3.6,1.611,3.6,3.6c0,1.99-1.611,3.6-3.6,3.6C322.011,159.6,320.399,157.99,320.399,156z
	 M320.399,300c0-1.988,1.611-3.6,3.601-3.6c1.988,0,3.6,1.611,3.6,3.6c0,1.99-1.611,3.6-3.6,3.6
	C322.011,303.6,320.399,301.99,320.399,300z M344.399,84c0-1.988,1.611-3.6,3.601-3.6c1.988,0,3.601,1.611,3.601,3.6
	c0,1.99-1.612,3.6-3.601,3.6C346.011,87.6,344.399,85.99,344.399,84z M344.399,36c0-1.988,1.611-3.6,3.601-3.6
	c1.988,0,3.601,1.611,3.601,3.6c0,1.99-1.612,3.6-3.601,3.6C346.011,39.6,344.399,37.99,344.399,36z M344.399,108
	c0-1.988,1.611-3.6,3.601-3.6c1.988,0,3.601,1.611,3.601,3.6c0,1.99-1.612,3.6-3.601,3.6C346.011,111.6,344.399,109.99,344.399,108z
	 M344.399,60c0-1.988,1.611-3.6,3.601-3.6c1.988,0,3.601,1.611,3.601,3.6c0,1.99-1.612,3.6-3.601,3.6
	C346.011,63.6,344.399,61.99,344.399,60z M344.399,156c0-1.988,1.611-3.6,3.601-3.6c1.988,0,3.601,1.611,3.601,3.6
	c0,1.99-1.612,3.6-3.601,3.6C346.011,159.6,344.399,157.99,344.399,156z M344.399,180c0-1.988,1.611-3.6,3.601-3.6
	c1.988,0,3.601,1.611,3.601,3.6c0,1.99-1.612,3.6-3.601,3.6C346.011,183.6,344.399,181.99,344.399,180z M344.399,204
	c0-1.988,1.611-3.6,3.601-3.6c1.988,0,3.601,1.611,3.601,3.6c0,1.99-1.612,3.6-3.601,3.6C346.011,207.6,344.399,205.99,344.399,204z
	 M332.399,360c0-1.988,1.611-3.6,3.601-3.6c0.87,0,1.657,0.321,2.279,0.834c0.8,0.66,1.321,1.647,1.321,2.766
	c0,1.119-0.521,2.105-1.321,2.766c-0.622,0.514-1.409,0.834-2.279,0.834C334.011,363.6,332.399,361.99,332.399,360z M344.399,132
	c0-1.988,1.611-3.6,3.601-3.6c1.988,0,3.601,1.611,3.601,3.6c0,1.99-1.612,3.6-3.601,3.6C346.011,135.6,344.399,133.99,344.399,132z
	 M332.399,264c0-1.988,1.611-3.6,3.601-3.6c0.87,0,1.657,0.321,2.279,0.834c0.8,0.66,1.321,1.647,1.321,2.766
	c0,1.119-0.521,2.105-1.321,2.766c-0.622,0.514-1.409,0.834-2.279,0.834C334.011,267.6,332.399,265.99,332.399,264z M332.399,24
	c0-1.988,1.611-3.6,3.601-3.6c0.87,0,1.657,0.321,2.279,0.834c0.8,0.66,1.321,1.647,1.321,2.765c0,1.12-0.521,2.106-1.321,2.766
	C337.657,27.279,336.87,27.6,336,27.6C334.011,27.6,332.399,25.99,332.399,24z M332.399,312c0-1.988,1.611-3.6,3.601-3.6
	c0.87,0,1.657,0.321,2.279,0.834c0.8,0.66,1.321,1.647,1.321,2.766c0,1.119-0.521,2.105-1.321,2.766
	c-0.622,0.514-1.409,0.834-2.279,0.834C334.011,315.6,332.399,313.99,332.399,312z M332.399,48.001L332.399,48.001L332.399,48.001
	c0-1.989,1.611-3.601,3.601-3.601c0.87,0,1.657,0.321,2.279,0.834c0.8,0.66,1.321,1.647,1.321,2.765v0v0
	c0,1.12-0.521,2.106-1.321,2.766c-0.622,0.513-1.409,0.834-2.279,0.834C334.011,51.601,332.399,49.991,332.399,48.001z M332.399,120
	c0-1.988,1.611-3.6,3.601-3.6c0.87,0,1.657,0.321,2.279,0.834c0.8,0.66,1.321,1.647,1.321,2.765c0,1.12-0.521,2.106-1.321,2.766
	c-0.622,0.513-1.409,0.834-2.279,0.834C334.011,123.6,332.399,121.99,332.399,120z M332.399,72c0-1.988,1.611-3.6,3.601-3.6
	c0.87,0,1.657,0.321,2.279,0.834c0.8,0.66,1.321,1.647,1.321,2.765c0,1.12-0.521,2.106-1.321,2.766
	C337.657,75.279,336.87,75.6,336,75.6C334.011,75.6,332.399,73.99,332.399,72z M332.399,168c0-1.988,1.611-3.6,3.601-3.6
	c0.87,0,1.657,0.321,2.279,0.834c0.8,0.66,1.321,1.647,1.321,2.765c0,1.12-0.521,2.106-1.321,2.766
	c-0.622,0.513-1.409,0.834-2.279,0.834C334.011,171.6,332.399,169.99,332.399,168z M332.399,96.001L332.399,96.001L332.399,96.001
	c0-1.989,1.611-3.601,3.601-3.601c0.87,0,1.657,0.321,2.279,0.834c0.8,0.66,1.321,1.647,1.321,2.765v0v0
	c0,1.12-0.521,2.106-1.321,2.766c-0.622,0.513-1.409,0.834-2.279,0.834C334.011,99.601,332.399,97.991,332.399,96.001z M332.399,216
	c0-1.988,1.611-3.6,3.601-3.6c0.87,0,1.657,0.321,2.279,0.834c0.8,0.66,1.321,1.647,1.321,2.766c0,1.119-0.521,2.105-1.321,2.766
	c-0.622,0.514-1.409,0.834-2.279,0.834C334.011,219.6,332.399,217.99,332.399,216z"/>
</svg>
