<?xml version="1.0" encoding="utf-8"?>
<!-- Generator: Adobe Illustrator 16.0.0, SVG Export Plug-In . SVG Version: 6.00 Build 0)  -->
<!DOCTYPE svg PUBLIC "-//W3C//DTD SVG 1.1//EN" "http://www.w3.org/Graphics/SVG/1.1/DTD/svg11.dtd">
<svg version="1.1" xmlns="http://www.w3.org/2000/svg" xmlns:xlink="http://www.w3.org/1999/xlink" x="0px" y="0px" width="400px"
	 height="400px" viewBox="0 0 400 400" enable-background="new 0 0 400 400" xml:space="preserve">
<g id="Layer_1">
</g>
<g id="_x32__x2F_3">
</g>
<g id="_x32__x2F_3_copy">
	<g>
		<path d="M390,0H10C4.477,0,0,4.477,0,10v380c0,5.522,4.477,10,10,10h380c5.522,0,10-4.478,10-10V10C400,4.477,395.522,0,390,0z
			 M380,379.999H20V20h360V379.999z"/>
		<circle cx="96" cy="216" r="3.6"/>
		<path d="M96,243.601c1.988,0,3.6-1.609,3.6-3.6c0,0,0,0,0-0.001c0-1.988-1.612-3.6-3.6-3.6c-1.989,0-3.6,1.611-3.6,3.6
			c0,0.001,0,0.001,0,0.001C92.4,241.991,94.011,243.601,96,243.601z"/>
		<circle cx="96" cy="120" r="3.6"/>
		<path d="M96,195.601c1.988,0,3.6-1.609,3.6-3.6v0v0c0-1.988-1.612-3.6-3.6-3.6c-1.989,0-3.6,1.611-3.6,3.6v0v0
			C92.4,193.991,94.011,195.601,96,195.601z"/>
		<circle cx="96" cy="264" r="3.6"/>
		<path d="M96,147.601c1.988,0,3.6-1.609,3.6-3.6v0v0c0-1.988-1.612-3.6-3.6-3.6c-1.989,0-3.6,1.611-3.6,3.6v0v0
			C92.4,145.991,94.011,147.601,96,147.601z"/>
		<path d="M96,291.601c1.988,0,3.6-1.609,3.6-3.6c0,0,0,0,0-0.001c0-1.988-1.612-3.6-3.6-3.6c-1.989,0-3.6,1.611-3.6,3.6
			c0,0.001,0,0.001,0,0.001C92.4,289.991,94.011,291.601,96,291.601z"/>
		<circle cx="96" cy="168" r="3.6"/>
		<circle cx="96" cy="360" r="3.6"/>
		<circle cx="108" cy="132" r="3.6"/>
		<circle cx="108" cy="84" r="3.6"/>
		<circle cx="108" cy="108" r="3.6"/>
		<circle cx="108" cy="156" r="3.6"/>
		<path d="M96,339.601c1.988,0,3.6-1.609,3.6-3.6c0,0,0,0,0-0.001c0-1.988-1.612-3.6-3.6-3.6c-1.989,0-3.6,1.611-3.6,3.6
			c0,0.001,0,0.001,0,0.001C92.4,337.991,94.011,339.601,96,339.601z"/>
		<circle cx="84" cy="60" r="3.6"/>
		<circle cx="108" cy="180" r="3.6"/>
		<circle cx="108" cy="60" r="3.6"/>
		<circle cx="108" cy="36" r="3.6"/>
		<path d="M96,99.601c1.988,0,3.6-1.609,3.6-3.6v0v0c0-1.988-1.612-3.6-3.6-3.6c-1.989,0-3.6,1.611-3.6,3.6v0v0
			C92.4,97.991,94.011,99.601,96,99.601z"/>
		<circle cx="84" cy="132" r="3.6"/>
		<circle cx="84" cy="156" r="3.6"/>
		<circle cx="84" cy="180" r="3.6"/>
		<circle cx="84" cy="204" r="3.6"/>
		<circle cx="84" cy="228" r="3.6"/>
		<circle cx="84" cy="108" r="3.6"/>
		<circle cx="84" cy="36" r="3.6"/>
		<circle cx="84" cy="84" r="3.6"/>
		<circle cx="84" cy="276" r="3.6"/>
		<circle cx="84" cy="348" r="3.6"/>
		<circle cx="84" cy="252" r="3.6"/>
		<path d="M96,51.601c1.988,0,3.6-1.609,3.6-3.6v0v0c0-1.988-1.612-3.6-3.6-3.6c-1.989,0-3.6,1.611-3.6,3.6v0v0
			C92.4,49.991,94.011,51.601,96,51.601z"/>
		<circle cx="96" cy="24" r="3.6"/>
		<circle cx="84" cy="372" r="3.6"/>
		<circle cx="96" cy="72" r="3.6"/>
		<circle cx="132" cy="372" r="3.6"/>
		<circle cx="84" cy="300" r="3.6"/>
		<circle cx="96" cy="312" r="3.6"/>
		<circle cx="132" cy="108" r="3.6"/>
		<circle cx="132" cy="84" r="3.6"/>
		<circle cx="132" cy="156" r="3.6"/>
		<circle cx="108" cy="204" r="3.6"/>
		<circle cx="132" cy="132" r="3.6"/>
		<circle cx="132" cy="60" r="3.6"/>
		<circle cx="120" cy="312" r="3.6"/>
		<path d="M120,339.601c1.988,0,3.6-1.609,3.6-3.6c0,0,0,0,0-0.001c0-1.988-1.612-3.6-3.6-3.6c-1.989,0-3.6,1.611-3.6,3.6
			c0,0.001,0,0.001,0,0.001C116.4,337.991,118.011,339.601,120,339.601z"/>
		<circle cx="120" cy="360" r="3.6"/>
		<circle cx="132" cy="276" r="3.6"/>
		<path d="M120,291.601c1.988,0,3.6-1.609,3.6-3.6c0,0,0,0,0-0.001c0-1.988-1.612-3.6-3.6-3.6c-1.989,0-3.6,1.611-3.6,3.6
			c0,0.001,0,0.001,0,0.001C116.4,289.991,118.011,291.601,120,291.601z"/>
		<circle cx="132" cy="324" r="3.6"/>
		<circle cx="132" cy="180" r="3.6"/>
		<circle cx="132" cy="348" r="3.6"/>
		<circle cx="132" cy="300" r="3.6"/>
		<circle cx="132" cy="252" r="3.6"/>
		<circle cx="132" cy="204" r="3.6"/>
		<circle cx="132" cy="228" r="3.6"/>
		<circle cx="132" cy="36" r="3.6"/>
		<circle cx="120" cy="24" r="3.6"/>
		<circle cx="108" cy="372" r="3.6"/>
		<circle cx="120" cy="264" r="3.6"/>
		<path d="M120,51.601c1.988,0,3.6-1.609,3.6-3.6v0v0c0-1.988-1.612-3.6-3.6-3.6c-1.989,0-3.6,1.611-3.6,3.6v0v0
			C116.4,49.991,118.011,51.601,120,51.601z"/>
		<circle cx="108" cy="324" r="3.6"/>
		<circle cx="108" cy="252" r="3.6"/>
		<circle cx="108" cy="228" r="3.6"/>
		<circle cx="108" cy="300" r="3.6"/>
		<circle cx="108" cy="276" r="3.6"/>
		<circle cx="108" cy="348" r="3.6"/>
		<path d="M120,195.601c1.988,0,3.6-1.609,3.6-3.6v0v0c0-1.988-1.612-3.6-3.6-3.6c-1.989,0-3.6,1.611-3.6,3.6v0v0
			C116.4,193.991,118.011,195.601,120,195.601z"/>
		<circle cx="120" cy="216" r="3.6"/>
		<circle cx="120" cy="168" r="3.6"/>
		<path d="M120,243.601c1.988,0,3.6-1.609,3.6-3.6c0,0,0,0,0-0.001c0-1.988-1.612-3.6-3.6-3.6c-1.989,0-3.6,1.611-3.6,3.6
			c0,0.001,0,0.001,0,0.001C116.4,241.991,118.011,243.601,120,243.601z"/>
		<circle cx="120" cy="72" r="3.6"/>
		<path d="M120,99.601c1.988,0,3.6-1.609,3.6-3.6v0v0c0-1.988-1.612-3.6-3.6-3.6c-1.989,0-3.6,1.611-3.6,3.6v0v0
			C116.4,97.991,118.011,99.601,120,99.601z"/>
		<circle cx="120" cy="120" r="3.6"/>
		<path d="M120,147.601c1.988,0,3.6-1.609,3.6-3.6v0v0c0-1.988-1.612-3.6-3.6-3.6c-1.989,0-3.6,1.611-3.6,3.6v0v0
			C116.4,145.991,118.011,147.601,120,147.601z"/>
		<circle cx="84" cy="324" r="3.6"/>
		<circle cx="36" cy="252" r="3.6"/>
		<circle cx="36" cy="276" r="3.6"/>
		<circle cx="36" cy="324" r="3.6"/>
		<circle cx="36" cy="300" r="3.6"/>
		<circle cx="36" cy="108" r="3.6"/>
		<circle cx="36" cy="132" r="3.6"/>
		<circle cx="36" cy="156" r="3.6"/>
		<circle cx="36" cy="204" r="3.6"/>
		<circle cx="36" cy="180" r="3.6"/>
		<circle cx="36" cy="228" r="3.6"/>
		<circle cx="48" cy="72" r="3.6"/>
		<path d="M48,99.601c1.988,0,3.6-1.609,3.6-3.6v0v0c0-1.988-1.612-3.6-3.6-3.6c-1.989,0-3.6,1.611-3.6,3.6v0v0
			C44.4,97.991,46.011,99.601,48,99.601z"/>
		<circle cx="48" cy="120" r="3.6"/>
		<path d="M48,147.601c1.988,0,3.6-1.609,3.6-3.6v0v0c0-1.988-1.612-3.6-3.6-3.6c-1.989,0-3.6,1.611-3.6,3.6v0v0
			C44.4,145.991,46.011,147.601,48,147.601z"/>
		<circle cx="36" cy="348" r="3.6"/>
		<circle cx="48" cy="24" r="3.6"/>
		<circle cx="36" cy="372" r="3.6"/>
		<path d="M48,51.601c1.988,0,3.6-1.609,3.6-3.6v0v0c0-1.988-1.612-3.6-3.6-3.6c-1.989,0-3.6,1.611-3.6,3.6v0v0
			C44.4,49.991,46.011,51.601,48,51.601z"/>
		<circle cx="24" cy="360" r="3.6"/>
		<circle cx="24" cy="216" r="3.6"/>
		<circle cx="24" cy="168" r="3.6"/>
		<path d="M24,195.601c1.988,0,3.6-1.609,3.6-3.6v0v0c0-1.988-1.612-3.6-3.6-3.6c-1.989,0-3.6,1.611-3.6,3.6v0v0
			C20.4,193.991,22.011,195.601,24,195.601z"/>
		<circle cx="24" cy="120" r="3.6"/>
		<path d="M24,147.601c1.988,0,3.6-1.609,3.6-3.6v0v0c0-1.988-1.612-3.6-3.6-3.6c-1.989,0-3.6,1.611-3.6,3.6v0v0
			C20.4,145.991,22.011,147.601,24,147.601z"/>
		<circle cx="24" cy="24" r="3.6"/>
		<path d="M24,51.601c1.988,0,3.6-1.609,3.6-3.6v0v0c0-1.988-1.612-3.6-3.6-3.6c-1.989,0-3.6,1.611-3.6,3.6v0v0
			C20.4,49.991,22.011,51.601,24,51.601z"/>
		<path d="M24,99.601c1.988,0,3.6-1.609,3.6-3.6v0v0c0-1.988-1.612-3.6-3.6-3.6c-1.989,0-3.6,1.611-3.6,3.6v0v0
			C20.4,97.991,22.011,99.601,24,99.601z"/>
		<circle cx="24" cy="72" r="3.6"/>
		<path d="M24,339.601c1.988,0,3.6-1.609,3.6-3.6c0,0,0,0,0-0.001c0-1.988-1.612-3.6-3.6-3.6c-1.989,0-3.6,1.611-3.6,3.6
			c0,0.001,0,0.001,0,0.001C20.4,337.991,22.011,339.601,24,339.601z"/>
		<circle cx="48" cy="168" r="3.6"/>
		<circle cx="36" cy="84" r="3.6"/>
		<circle cx="36" cy="60" r="3.6"/>
		<circle cx="36" cy="36" r="3.6"/>
		<circle cx="24" cy="264" r="3.6"/>
		<path d="M24,243.601c1.988,0,3.6-1.609,3.6-3.6c0,0,0,0,0-0.001c0-1.988-1.612-3.6-3.6-3.6c-1.989,0-3.6,1.611-3.6,3.6
			c0,0.001,0,0.001,0,0.001C20.4,241.991,22.011,243.601,24,243.601z"/>
		<path d="M24,291.601c1.988,0,3.6-1.609,3.6-3.6c0,0,0,0,0-0.001c0-1.988-1.612-3.6-3.6-3.6c-1.989,0-3.6,1.611-3.6,3.6
			c0,0.001,0,0.001,0,0.001C20.4,289.991,22.011,291.601,24,291.601z"/>
		<circle cx="24" cy="312" r="3.6"/>
		<path d="M72,291.601c1.988,0,3.6-1.609,3.6-3.6c0,0,0,0,0-0.001c0-1.988-1.612-3.6-3.6-3.6c-1.989,0-3.6,1.611-3.6,3.6
			c0,0.001,0,0.001,0,0.001C68.4,289.991,70.011,291.601,72,291.601z"/>
		<path d="M72,147.601c1.988,0,3.6-1.609,3.6-3.6v0v0c0-1.988-1.612-3.6-3.6-3.6c-1.989,0-3.6,1.611-3.6,3.6v0v0
			C68.4,145.991,70.011,147.601,72,147.601z"/>
		<circle cx="72" cy="24" r="3.6"/>
		<circle cx="72" cy="72" r="3.6"/>
		<circle cx="72" cy="120" r="3.6"/>
		<path d="M72,99.601c1.988,0,3.6-1.609,3.6-3.6v0v0c0-1.988-1.612-3.6-3.6-3.6c-1.989,0-3.6,1.611-3.6,3.6v0v0
			C68.4,97.991,70.011,99.601,72,99.601z"/>
		<path d="M72,51.601c1.988,0,3.6-1.609,3.6-3.6v0v0c0-1.988-1.612-3.6-3.6-3.6c-1.989,0-3.6,1.611-3.6,3.6v0v0
			C68.4,49.991,70.011,51.601,72,51.601z"/>
		<circle cx="60" cy="324" r="3.6"/>
		<circle cx="60" cy="300" r="3.6"/>
		<circle cx="60" cy="372" r="3.6"/>
		<circle cx="72" cy="216" r="3.6"/>
		<circle cx="72" cy="360" r="3.6"/>
		<circle cx="72" cy="168" r="3.6"/>
		<circle cx="72" cy="264" r="3.6"/>
		<path d="M72,339.601c1.988,0,3.6-1.609,3.6-3.6c0,0,0,0,0-0.001c0-1.988-1.612-3.6-3.6-3.6c-1.989,0-3.6,1.611-3.6,3.6
			c0,0.001,0,0.001,0,0.001C68.4,337.991,70.011,339.601,72,339.601z"/>
		<circle cx="72" cy="312" r="3.6"/>
		<path d="M72,195.601c1.988,0,3.6-1.609,3.6-3.6v0v0c0-1.988-1.612-3.6-3.6-3.6c-1.989,0-3.6,1.611-3.6,3.6v0v0
			C68.4,193.991,70.011,195.601,72,195.601z"/>
		<circle cx="60" cy="276" r="3.6"/>
		<path d="M72,243.601c1.988,0,3.6-1.609,3.6-3.6c0,0,0,0,0-0.001c0-1.988-1.612-3.6-3.6-3.6c-1.989,0-3.6,1.611-3.6,3.6
			c0,0.001,0,0.001,0,0.001C68.4,241.991,70.011,243.601,72,243.601z"/>
		<circle cx="48" cy="312" r="3.6"/>
		<path d="M48,339.601c1.988,0,3.6-1.609,3.6-3.6c0,0,0,0,0-0.001c0-1.988-1.612-3.6-3.6-3.6c-1.989,0-3.6,1.611-3.6,3.6
			c0,0.001,0,0.001,0,0.001C44.4,337.991,46.011,339.601,48,339.601z"/>
		<path d="M48,195.601c1.988,0,3.6-1.609,3.6-3.6v0v0c0-1.988-1.612-3.6-3.6-3.6c-1.989,0-3.6,1.611-3.6,3.6v0v0
			C44.4,193.991,46.011,195.601,48,195.601z"/>
		<circle cx="48" cy="360" r="3.6"/>
		<circle cx="60" cy="60" r="3.6"/>
		<path d="M48,291.601c1.988,0,3.6-1.609,3.6-3.6c0,0,0,0,0-0.001c0-1.988-1.612-3.6-3.6-3.6c-1.989,0-3.6,1.611-3.6,3.6
			c0,0.001,0,0.001,0,0.001C44.4,289.991,46.011,291.601,48,291.601z"/>
		<circle cx="48" cy="216" r="3.6"/>
		<path d="M48,243.601c1.988,0,3.6-1.609,3.6-3.6c0,0,0,0,0-0.001c0-1.988-1.612-3.6-3.6-3.6c-1.989,0-3.6,1.611-3.6,3.6
			c0,0.001,0,0.001,0,0.001C44.4,241.991,46.011,243.601,48,243.601z"/>
		<circle cx="48" cy="264" r="3.6"/>
		<circle cx="60" cy="180" r="3.6"/>
		<circle cx="60" cy="252" r="3.6"/>
		<circle cx="60" cy="204" r="3.6"/>
		<circle cx="60" cy="228" r="3.6"/>
		<circle cx="60" cy="156" r="3.6"/>
		<circle cx="60" cy="36" r="3.6"/>
		<circle cx="60" cy="132" r="3.6"/>
		<circle cx="60" cy="84" r="3.6"/>
		<circle cx="60" cy="108" r="3.6"/>
		<circle cx="60" cy="348" r="3.6"/>
		<path d="M216,291.601c1.988,0,3.601-1.609,3.601-3.6c0,0,0,0,0-0.001c0-1.988-1.612-3.6-3.601-3.6c-1.989,0-3.601,1.611-3.601,3.6
			c0,0.001,0,0.001,0,0.001C212.399,289.991,214.011,291.601,216,291.601z"/>
		<circle cx="216" cy="264" r="3.6"/>
		<circle cx="216" cy="312" r="3.6"/>
		<path d="M216,339.601c1.988,0,3.601-1.609,3.601-3.6c0,0,0,0,0-0.001c0-1.988-1.612-3.6-3.601-3.6c-1.989,0-3.601,1.611-3.601,3.6
			c0,0.001,0,0.001,0,0.001C212.399,337.991,214.011,339.601,216,339.601z"/>
		<path d="M216,243.601c1.988,0,3.601-1.609,3.601-3.6c0,0,0,0,0-0.001c0-1.988-1.612-3.6-3.601-3.6c-1.989,0-3.601,1.611-3.601,3.6
			c0,0.001,0,0.001,0,0.001C212.399,241.991,214.011,243.601,216,243.601z"/>
		<circle cx="216" cy="216" r="3.6"/>
		<circle cx="216" cy="120" r="3.6"/>
		<path d="M216,147.601c1.988,0,3.601-1.609,3.601-3.6v0v0c0-1.988-1.612-3.6-3.601-3.6c-1.989,0-3.601,1.611-3.601,3.6v0v0
			C212.399,145.991,214.011,147.601,216,147.601z"/>
		<path d="M216,195.601c1.988,0,3.601-1.609,3.601-3.6v0v0c0-1.988-1.612-3.6-3.601-3.6c-1.989,0-3.601,1.611-3.601,3.6v0v0
			C212.399,193.991,214.011,195.601,216,195.601z"/>
		<circle cx="228" cy="204" r="3.6"/>
		<circle cx="228" cy="156" r="3.6"/>
		<circle cx="228" cy="108" r="3.6"/>
		<circle cx="228" cy="132" r="3.6"/>
		<circle cx="228" cy="180" r="3.6"/>
		<circle cx="204" cy="60" r="3.6"/>
		<circle cx="228" cy="60" r="3.6"/>
		<circle cx="228" cy="84" r="3.6"/>
		<circle cx="228" cy="36" r="3.6"/>
		<circle cx="216" cy="168" r="3.6"/>
		<circle cx="204" cy="204" r="3.6"/>
		<circle cx="204" cy="180" r="3.6"/>
		<circle cx="204" cy="156" r="3.6"/>
		<circle cx="204" cy="228" r="3.6"/>
		<path d="M216,99.601c1.988,0,3.601-1.609,3.601-3.6v0v0c0-1.988-1.612-3.6-3.601-3.6c-1.989,0-3.601,1.611-3.601,3.6v0v0
			C212.399,97.991,214.011,99.601,216,99.601z"/>
		<circle cx="204" cy="84" r="3.6"/>
		<circle cx="204" cy="132" r="3.6"/>
		<circle cx="204" cy="36" r="3.6"/>
		<circle cx="204" cy="252" r="3.6"/>
		<circle cx="204" cy="108" r="3.6"/>
		<path d="M216,51.601c1.988,0,3.601-1.609,3.601-3.6v0v0c0-1.988-1.612-3.6-3.601-3.6c-1.989,0-3.601,1.611-3.601,3.6v0v0
			C212.399,49.991,214.011,51.601,216,51.601z"/>
		<circle cx="216" cy="24" r="3.6"/>
		<circle cx="204" cy="276" r="3.6"/>
		<circle cx="216" cy="72" r="3.6"/>
		<circle cx="204" cy="372" r="3.6"/>
		<circle cx="204" cy="300" r="3.6"/>
		<circle cx="204" cy="348" r="3.6"/>
		<circle cx="204" cy="324" r="3.6"/>
		<circle cx="216" cy="360" r="3.6"/>
		<circle cx="252" cy="156" r="3.6"/>
		<circle cx="252" cy="132" r="3.6"/>
		<circle cx="252" cy="204" r="3.6"/>
		<circle cx="252" cy="108" r="3.6"/>
		<circle cx="252" cy="180" r="3.6"/>
		<path d="M240,315.6c0.87,0,1.657-0.32,2.279-0.834c0.8-0.66,1.321-1.646,1.321-2.766c0-1.118-0.521-2.105-1.321-2.766
			c-0.622-0.513-1.409-0.834-2.279-0.834c-1.989,0-3.601,1.611-3.601,3.6C236.399,313.99,238.011,315.6,240,315.6z"/>
		<circle cx="252" cy="60" r="3.6"/>
		<path d="M240,363.6c0.87,0,1.657-0.32,2.279-0.834c0.8-0.66,1.321-1.646,1.321-2.766c0-1.118-0.521-2.105-1.321-2.766
			c-0.622-0.513-1.409-0.834-2.279-0.834c-1.989,0-3.601,1.611-3.601,3.6C236.399,361.99,238.011,363.6,240,363.6z"/>
		<circle cx="252" cy="84" r="3.6"/>
		<path d="M240,339.601c0.87,0,1.657-0.32,2.279-0.834c0.8-0.66,1.321-1.646,1.321-2.766c0,0,0,0,0-0.001
			c0-1.118-0.521-2.105-1.321-2.766c-0.622-0.513-1.409-0.834-2.279-0.834c-1.989,0-3.601,1.611-3.601,3.6c0,0.001,0,0.001,0,0.001
			C236.399,337.991,238.011,339.601,240,339.601z"/>
		<circle cx="228" cy="228" r="3.6"/>
		<circle cx="252" cy="372" r="3.6"/>
		<circle cx="252" cy="348" r="3.6"/>
		<circle cx="252" cy="36" r="3.6"/>
		<circle cx="252" cy="324" r="3.6"/>
		<circle cx="252" cy="252" r="3.6"/>
		<circle cx="252" cy="300" r="3.6"/>
		<circle cx="252" cy="276" r="3.6"/>
		<circle cx="252" cy="228" r="3.6"/>
		<path d="M240,75.6c0.87,0,1.657-0.321,2.279-0.834c0.8-0.66,1.321-1.646,1.321-2.766c0-1.118-0.521-2.105-1.321-2.765
			C241.657,68.721,240.87,68.4,240,68.4c-1.989,0-3.601,1.611-3.601,3.6C236.399,73.99,238.011,75.6,240,75.6z"/>
		<path d="M240,51.601c0.87,0,1.657-0.321,2.279-0.834c0.8-0.66,1.321-1.646,1.321-2.766v0v0c0-1.118-0.521-2.105-1.321-2.765
			C241.657,44.721,240.87,44.4,240,44.4c-1.989,0-3.601,1.611-3.601,3.6v0v0C236.399,49.991,238.011,51.601,240,51.601z"/>
		<circle cx="228" cy="372" r="3.6"/>
		<path d="M240,27.6c0.87,0,1.657-0.321,2.279-0.834c0.8-0.66,1.321-1.646,1.321-2.766c0-1.118-0.521-2.105-1.321-2.765
			C241.657,20.721,240.87,20.4,240,20.4c-1.989,0-3.601,1.611-3.601,3.6C236.399,25.99,238.011,27.6,240,27.6z"/>
		<circle cx="228" cy="348" r="3.6"/>
		<circle cx="228" cy="276" r="3.6"/>
		<circle cx="228" cy="324" r="3.6"/>
		<circle cx="228" cy="252" r="3.6"/>
		<circle cx="228" cy="300" r="3.6"/>
		<path d="M240,99.601c0.87,0,1.657-0.321,2.279-0.834c0.8-0.66,1.321-1.646,1.321-2.766v0v0c0-1.118-0.521-2.105-1.321-2.765
			C241.657,92.721,240.87,92.4,240,92.4c-1.989,0-3.601,1.611-3.601,3.6v0v0C236.399,97.991,238.011,99.601,240,99.601z"/>
		<path d="M240,195.601c0.87,0,1.657-0.321,2.279-0.834c0.8-0.66,1.321-1.646,1.321-2.766v0v0c0-1.118-0.521-2.105-1.321-2.765
			c-0.622-0.514-1.409-0.834-2.279-0.834c-1.989,0-3.601,1.611-3.601,3.6v0v0C236.399,193.991,238.011,195.601,240,195.601z"/>
		<path d="M240,243.601c0.87,0,1.657-0.32,2.279-0.834c0.8-0.66,1.321-1.646,1.321-2.766c0,0,0,0,0-0.001
			c0-1.118-0.521-2.105-1.321-2.766c-0.622-0.513-1.409-0.834-2.279-0.834c-1.989,0-3.601,1.611-3.601,3.6c0,0.001,0,0.001,0,0.001
			C236.399,241.991,238.011,243.601,240,243.601z"/>
		<path d="M240,219.6c0.87,0,1.657-0.32,2.279-0.834c0.8-0.66,1.321-1.646,1.321-2.766c0-1.118-0.521-2.105-1.321-2.766
			c-0.622-0.513-1.409-0.834-2.279-0.834c-1.989,0-3.601,1.611-3.601,3.6C236.399,217.99,238.011,219.6,240,219.6z"/>
		<path d="M240,267.6c0.87,0,1.657-0.32,2.279-0.834c0.8-0.66,1.321-1.646,1.321-2.766c0-1.118-0.521-2.105-1.321-2.766
			c-0.622-0.513-1.409-0.834-2.279-0.834c-1.989,0-3.601,1.611-3.601,3.6C236.399,265.99,238.011,267.6,240,267.6z"/>
		<path d="M240,123.6c0.87,0,1.657-0.321,2.279-0.834c0.8-0.66,1.321-1.646,1.321-2.766c0-1.118-0.521-2.105-1.321-2.765
			c-0.622-0.514-1.409-0.834-2.279-0.834c-1.989,0-3.601,1.611-3.601,3.6C236.399,121.99,238.011,123.6,240,123.6z"/>
		<path d="M240,291.601c0.87,0,1.657-0.32,2.279-0.834c0.8-0.66,1.321-1.646,1.321-2.766c0,0,0,0,0-0.001
			c0-1.118-0.521-2.105-1.321-2.766c-0.622-0.513-1.409-0.834-2.279-0.834c-1.989,0-3.601,1.611-3.601,3.6c0,0.001,0,0.001,0,0.001
			C236.399,289.991,238.011,291.601,240,291.601z"/>
		<path d="M240,147.601c0.87,0,1.657-0.321,2.279-0.834c0.8-0.66,1.321-1.646,1.321-2.766v0v0c0-1.118-0.521-2.105-1.321-2.765
			c-0.622-0.514-1.409-0.834-2.279-0.834c-1.989,0-3.601,1.611-3.601,3.6v0v0C236.399,145.991,238.011,147.601,240,147.601z"/>
		<path d="M240,171.6c0.87,0,1.657-0.321,2.279-0.834c0.8-0.66,1.321-1.646,1.321-2.766c0-1.118-0.521-2.105-1.321-2.765
			c-0.622-0.514-1.409-0.834-2.279-0.834c-1.989,0-3.601,1.611-3.601,3.6C236.399,169.99,238.011,171.6,240,171.6z"/>
		<circle cx="144" cy="168" r="3.6"/>
		<circle cx="156" cy="300" r="3.6"/>
		<circle cx="156" cy="276" r="3.6"/>
		<circle cx="156" cy="324" r="3.6"/>
		<circle cx="156" cy="252" r="3.6"/>
		<circle cx="156" cy="228" r="3.6"/>
		<circle cx="156" cy="156" r="3.6"/>
		<circle cx="156" cy="180" r="3.6"/>
		<circle cx="156" cy="348" r="3.6"/>
		<circle cx="156" cy="204" r="3.6"/>
		<circle cx="168" cy="72" r="3.6"/>
		<circle cx="156" cy="372" r="3.6"/>
		<circle cx="168" cy="120" r="3.6"/>
		<circle cx="168" cy="168" r="3.6"/>
		<path d="M168,99.601c1.988,0,3.6-1.609,3.6-3.6v0v0c0-1.988-1.612-3.6-3.6-3.6c-1.989,0-3.6,1.611-3.6,3.6v0v0
			C164.4,97.991,166.011,99.601,168,99.601z"/>
		<path d="M168,147.601c1.988,0,3.6-1.609,3.6-3.6v0v0c0-1.988-1.612-3.6-3.6-3.6c-1.989,0-3.6,1.611-3.6,3.6v0v0
			C164.4,145.991,166.011,147.601,168,147.601z"/>
		<path d="M168,51.601c1.988,0,3.6-1.609,3.6-3.6v0v0c0-1.988-1.612-3.6-3.6-3.6c-1.989,0-3.6,1.611-3.6,3.6v0v0
			C164.4,49.991,166.011,51.601,168,51.601z"/>
		<circle cx="168" cy="24" r="3.6"/>
		<circle cx="156" cy="132" r="3.6"/>
		<path d="M144,243.601c1.988,0,3.6-1.609,3.6-3.6c0,0,0,0,0-0.001c0-1.988-1.612-3.6-3.6-3.6c-1.989,0-3.6,1.611-3.6,3.6
			c0,0.001,0,0.001,0,0.001C140.4,241.991,142.011,243.601,144,243.601z"/>
		<circle cx="156" cy="108" r="3.6"/>
		<path d="M144,195.601c1.988,0,3.6-1.609,3.6-3.6v0v0c0-1.988-1.612-3.6-3.6-3.6c-1.989,0-3.6,1.611-3.6,3.6v0v0
			C140.4,193.991,142.011,195.601,144,195.601z"/>
		<path d="M168,195.601c1.988,0,3.6-1.609,3.6-3.6v0v0c0-1.988-1.612-3.6-3.6-3.6c-1.989,0-3.6,1.611-3.6,3.6v0v0
			C164.4,193.991,166.011,195.601,168,195.601z"/>
		<circle cx="144" cy="216" r="3.6"/>
		<path d="M144,51.601c1.988,0,3.6-1.609,3.6-3.6v0v0c0-1.988-1.612-3.6-3.6-3.6c-1.989,0-3.6,1.611-3.6,3.6v0v0
			C140.4,49.991,142.011,51.601,144,51.601z"/>
		<circle cx="144" cy="72" r="3.6"/>
		<circle cx="144" cy="24" r="3.6"/>
		<circle cx="144" cy="120" r="3.6"/>
		<path d="M144,99.601c1.988,0,3.6-1.609,3.6-3.6v0v0c0-1.988-1.612-3.6-3.6-3.6c-1.989,0-3.6,1.611-3.6,3.6v0v0
			C140.4,97.991,142.011,99.601,144,99.601z"/>
		<path d="M144,147.601c1.988,0,3.6-1.609,3.6-3.6v0v0c0-1.988-1.612-3.6-3.6-3.6c-1.989,0-3.6,1.611-3.6,3.6v0v0
			C140.4,145.991,142.011,147.601,144,147.601z"/>
		<circle cx="156" cy="36" r="3.6"/>
		<circle cx="144" cy="360" r="3.6"/>
		<circle cx="192" cy="360" r="3.6"/>
		<circle cx="156" cy="84" r="3.6"/>
		<circle cx="144" cy="312" r="3.6"/>
		<path d="M144,291.601c1.988,0,3.6-1.609,3.6-3.6c0,0,0,0,0-0.001c0-1.988-1.612-3.6-3.6-3.6c-1.989,0-3.6,1.611-3.6,3.6
			c0,0.001,0,0.001,0,0.001C140.4,289.991,142.011,291.601,144,291.601z"/>
		<circle cx="144" cy="264" r="3.6"/>
		<path d="M144,339.601c1.988,0,3.6-1.609,3.6-3.6c0,0,0,0,0-0.001c0-1.988-1.612-3.6-3.6-3.6c-1.989,0-3.6,1.611-3.6,3.6
			c0,0.001,0,0.001,0,0.001C140.4,337.991,142.011,339.601,144,339.601z"/>
		<circle cx="156" cy="60" r="3.6"/>
		<path d="M192,99.601c1.988,0,3.6-1.609,3.6-3.6v0v0c0-1.988-1.612-3.6-3.6-3.6c-1.989,0-3.6,1.611-3.6,3.6v0v0
			C188.4,97.991,190.011,99.601,192,99.601z"/>
		<circle cx="192" cy="24" r="3.6"/>
		<circle cx="192" cy="72" r="3.6"/>
		<circle cx="180" cy="300" r="3.6"/>
		<path d="M192,147.601c1.988,0,3.6-1.609,3.6-3.6v0v0c0-1.988-1.612-3.6-3.6-3.6c-1.989,0-3.6,1.611-3.6,3.6v0v0
			C188.4,145.991,190.011,147.601,192,147.601z"/>
		<circle cx="180" cy="324" r="3.6"/>
		<circle cx="180" cy="348" r="3.6"/>
		<circle cx="180" cy="372" r="3.6"/>
		<path d="M192,51.601c1.988,0,3.6-1.609,3.6-3.6v0v0c0-1.988-1.612-3.6-3.6-3.6c-1.989,0-3.6,1.611-3.6,3.6v0v0
			C188.4,49.991,190.011,51.601,192,51.601z"/>
		<circle cx="192" cy="120" r="3.6"/>
		<circle cx="192" cy="312" r="3.6"/>
		<path d="M192,291.601c1.988,0,3.6-1.609,3.6-3.6c0,0,0,0,0-0.001c0-1.988-1.612-3.6-3.6-3.6c-1.989,0-3.6,1.611-3.6,3.6
			c0,0.001,0,0.001,0,0.001C188.4,289.991,190.011,291.601,192,291.601z"/>
		<circle cx="192" cy="168" r="3.6"/>
		<path d="M192,339.601c1.988,0,3.6-1.609,3.6-3.6c0,0,0,0,0-0.001c0-1.988-1.612-3.6-3.6-3.6c-1.989,0-3.6,1.611-3.6,3.6
			c0,0.001,0,0.001,0,0.001C188.4,337.991,190.011,339.601,192,339.601z"/>
		<circle cx="192" cy="264" r="3.6"/>
		<path d="M192,195.601c1.988,0,3.6-1.609,3.6-3.6v0v0c0-1.988-1.612-3.6-3.6-3.6c-1.989,0-3.6,1.611-3.6,3.6v0v0
			C188.4,193.991,190.011,195.601,192,195.601z"/>
		<path d="M192,243.601c1.988,0,3.6-1.609,3.6-3.6c0,0,0,0,0-0.001c0-1.988-1.612-3.6-3.6-3.6c-1.989,0-3.6,1.611-3.6,3.6
			c0,0.001,0,0.001,0,0.001C188.4,241.991,190.011,243.601,192,243.601z"/>
		<circle cx="192" cy="216" r="3.6"/>
		<path d="M168,243.601c1.988,0,3.6-1.609,3.6-3.6c0,0,0,0,0-0.001c0-1.988-1.612-3.6-3.6-3.6c-1.989,0-3.6,1.611-3.6,3.6
			c0,0.001,0,0.001,0,0.001C164.4,241.991,166.011,243.601,168,243.601z"/>
		<circle cx="180" cy="276" r="3.6"/>
		<circle cx="168" cy="360" r="3.6"/>
		<circle cx="180" cy="60" r="3.6"/>
		<circle cx="180" cy="36" r="3.6"/>
		<circle cx="168" cy="312" r="3.6"/>
		<circle cx="168" cy="216" r="3.6"/>
		<circle cx="168" cy="264" r="3.6"/>
		<path d="M168,291.601c1.988,0,3.6-1.609,3.6-3.6c0,0,0,0,0-0.001c0-1.988-1.612-3.6-3.6-3.6c-1.989,0-3.6,1.611-3.6,3.6
			c0,0.001,0,0.001,0,0.001C164.4,289.991,166.011,291.601,168,291.601z"/>
		<path d="M168,339.601c1.988,0,3.6-1.609,3.6-3.6c0,0,0,0,0-0.001c0-1.988-1.612-3.6-3.6-3.6c-1.989,0-3.6,1.611-3.6,3.6
			c0,0.001,0,0.001,0,0.001C164.4,337.991,166.011,339.601,168,339.601z"/>
		<circle cx="180" cy="180" r="3.6"/>
		<circle cx="180" cy="204" r="3.6"/>
		<circle cx="180" cy="228" r="3.6"/>
		<circle cx="180" cy="252" r="3.6"/>
		<circle cx="180" cy="156" r="3.6"/>
		<circle cx="180" cy="108" r="3.6"/>
		<circle cx="180" cy="132" r="3.6"/>
		<circle cx="180" cy="84" r="3.6"/>
	</g>
</g>
</svg>
