<?xml version="1.0" encoding="utf-8"?>
<!-- Generator: Adobe Illustrator 16.0.0, SVG Export Plug-In . SVG Version: 6.00 Build 0)  -->
<!DOCTYPE svg PUBLIC "-//W3C//DTD SVG 1.1//EN" "http://www.w3.org/Graphics/SVG/1.1/DTD/svg11.dtd">
<svg version="1.1" id="Layer_3" xmlns="http://www.w3.org/2000/svg" xmlns:xlink="http://www.w3.org/1999/xlink" x="0px" y="0px"
	 width="400px" height="400px" viewBox="0 0 400 400" enable-background="new 0 0 400 400" xml:space="preserve">
<g>
	<path d="M390,0H10C4.477,0,0,4.477,0,10v380c0,5.522,4.477,10,10,10h380c5.522,0,10-4.478,10-10V10C400,4.477,395.522,0,390,0z
		 M380,379.999H20V20h360V379.999z"/>
	<path d="M312,99.601c1.988,0,3.601-1.609,3.601-3.6v0v0c0-1.988-1.612-3.6-3.601-3.6c-1.989,0-3.601,1.611-3.601,3.6v0v0
		C308.399,97.991,310.011,99.601,312,99.601z"/>
	<circle cx="324" cy="108" r="3.6"/>
	<circle cx="324" cy="36" r="3.6"/>
	<circle cx="324" cy="84" r="3.6"/>
	<circle cx="324" cy="132" r="3.6"/>
	<path d="M312,51.601c1.988,0,3.601-1.609,3.601-3.6v0v0c0-1.988-1.612-3.6-3.601-3.6c-1.989,0-3.601,1.611-3.601,3.6v0v0
		C308.399,49.991,310.011,51.601,312,51.601z"/>
	<circle cx="324" cy="60" r="3.6"/>
	<path d="M336,27.6c0.87,0,1.657-0.321,2.279-0.834c0.8-0.66,1.321-1.646,1.321-2.766c0-1.118-0.521-2.105-1.321-2.765
		C337.657,20.721,336.87,20.4,336,20.4c-1.989,0-3.601,1.611-3.601,3.6C332.399,25.99,334.011,27.6,336,27.6z"/>
	<path d="M336,123.6c0.87,0,1.657-0.321,2.279-0.834c0.8-0.66,1.321-1.646,1.321-2.766c0-1.118-0.521-2.105-1.321-2.765
		c-0.622-0.514-1.409-0.834-2.279-0.834c-1.989,0-3.601,1.611-3.601,3.6C332.399,121.99,334.011,123.6,336,123.6z"/>
	<path d="M336,75.6c0.87,0,1.657-0.321,2.279-0.834c0.8-0.66,1.321-1.646,1.321-2.766c0-1.118-0.521-2.105-1.321-2.765
		C337.657,68.721,336.87,68.4,336,68.4c-1.989,0-3.601,1.611-3.601,3.6C332.399,73.99,334.011,75.6,336,75.6z"/>
	<path d="M336,164.4c-1.384,0-2.57,0.789-3.174,1.933c0.383,1.515,0.736,3.042,1.068,4.577c0.593,0.43,1.316,0.69,2.105,0.69
		c0.87,0,1.657-0.321,2.279-0.834c0.8-0.66,1.321-1.646,1.321-2.766c0-1.118-0.521-2.105-1.321-2.765
		C337.657,164.721,336.87,164.4,336,164.4z"/>
	<circle cx="168" cy="24" r="3.6"/>
	<path d="M336,147.601c0.87,0,1.657-0.321,2.279-0.834c0.8-0.66,1.321-1.646,1.321-2.766v0v0c0-1.118-0.521-2.105-1.321-2.765
		c-0.622-0.514-1.409-0.834-2.279-0.834c-1.989,0-3.601,1.611-3.601,3.6v0v0C332.399,145.991,334.011,147.601,336,147.601z"/>
	<path d="M336,99.601c0.87,0,1.657-0.321,2.279-0.834c0.8-0.66,1.321-1.646,1.321-2.766v0v0c0-1.118-0.521-2.105-1.321-2.765
		C337.657,92.721,336.87,92.4,336,92.4c-1.989,0-3.601,1.611-3.601,3.6v0v0C332.399,97.991,334.011,99.601,336,99.601z"/>
	<path d="M336,51.601c0.87,0,1.657-0.321,2.279-0.834c0.8-0.66,1.321-1.646,1.321-2.766v0v0c0-1.118-0.521-2.105-1.321-2.765
		C337.657,44.721,336.87,44.4,336,44.4c-1.989,0-3.601,1.611-3.601,3.6v0v0C332.399,49.991,334.011,51.601,336,51.601z"/>
	<circle cx="252" cy="60" r="3.6"/>
	<path d="M202.06,63.025c1.234,0.019,2.465,0.052,3.69,0.103c1.099-0.616,1.851-1.777,1.851-3.128c0-1.988-1.612-3.6-3.601-3.6
		c-1.989,0-3.6,1.611-3.6,3.6C200.4,61.273,201.063,62.385,202.06,63.025z"/>
	<circle cx="132" cy="324" r="3.6"/>
	<circle cx="216" cy="24" r="3.6"/>
	<circle cx="192" cy="24" r="3.6"/>
	<circle cx="180" cy="60" r="3.6"/>
	<circle cx="180" cy="36" r="3.6"/>
	<circle cx="264" cy="72" r="3.6"/>
	<path d="M192,51.601c1.988,0,3.6-1.609,3.6-3.6v0v0c0-1.988-1.612-3.6-3.6-3.6c-1.989,0-3.6,1.611-3.6,3.6v0v0
		C188.4,49.991,190.011,51.601,192,51.601z"/>
	<circle cx="252" cy="36" r="3.6"/>
	<circle cx="228" cy="60" r="3.6"/>
	<circle cx="264" cy="24" r="3.6"/>
	<path d="M264,51.601c1.988,0,3.601-1.609,3.601-3.6v0v0c0-1.988-1.612-3.6-3.601-3.6c-1.989,0-3.601,1.611-3.601,3.6v0v0
		C260.399,49.991,262.011,51.601,264,51.601z"/>
	<circle cx="228" cy="36" r="3.6"/>
	<path d="M240,51.601c0.87,0,1.657-0.321,2.279-0.834c0.8-0.66,1.321-1.646,1.321-2.766v0v0c0-1.118-0.521-2.105-1.321-2.765
		C241.657,44.721,240.87,44.4,240,44.4c-1.989,0-3.601,1.611-3.601,3.6v0v0C236.399,49.991,238.011,51.601,240,51.601z"/>
	<path d="M336.511,188.452c0.194,2.322,0.33,4.662,0.406,7.016c0.509-0.134,0.968-0.376,1.362-0.701
		c0.8-0.66,1.321-1.646,1.321-2.766v0v0c0-1.118-0.521-2.105-1.321-2.765C337.782,188.825,337.18,188.548,336.511,188.452z"/>
	<path d="M288,51.601c0.87,0,1.657-0.321,2.279-0.834c0.8-0.66,1.321-1.646,1.321-2.766v0v0c0-1.118-0.521-2.105-1.321-2.765
		C289.657,44.721,288.87,44.4,288,44.4c-1.989,0-3.601,1.611-3.601,3.6v0v0C284.399,49.991,286.011,51.601,288,51.601z"/>
	<path d="M212.442,336.432c0.216,1.784,1.716,3.169,3.558,3.169c1.988,0,3.601-1.609,3.601-3.6c0,0,0,0,0-0.001
		c0-0.136-0.025-0.265-0.04-0.396C217.207,335.94,214.834,336.217,212.442,336.432z"/>
	<circle cx="204" cy="348" r="3.6"/>
	<circle cx="204" cy="372" r="3.6"/>
	<circle cx="180" cy="348" r="3.6"/>
	<circle cx="180" cy="372" r="3.6"/>
	<path d="M240,363.6c0.87,0,1.657-0.32,2.279-0.834c0.8-0.66,1.321-1.646,1.321-2.766c0-1.118-0.521-2.105-1.321-2.766
		c-0.622-0.513-1.409-0.834-2.279-0.834c-1.989,0-3.601,1.611-3.601,3.6C236.399,361.99,238.011,363.6,240,363.6z"/>
	<circle cx="228" cy="348" r="3.6"/>
	<circle cx="228" cy="372" r="3.6"/>
	<circle cx="132" cy="348" r="3.6"/>
	<circle cx="144" cy="360" r="3.6"/>
	<path d="M240,339.601c0.87,0,1.657-0.32,2.279-0.834c0.8-0.66,1.321-1.646,1.321-2.766c0,0,0,0,0-0.001
		c0-1.118-0.521-2.105-1.321-2.766c-0.622-0.513-1.409-0.834-2.279-0.834c-1.989,0-3.601,1.611-3.601,3.6c0,0.001,0,0.001,0,0.001
		C236.399,337.991,238.011,339.601,240,339.601z"/>
	<circle cx="132" cy="372" r="3.6"/>
	<circle cx="156" cy="348" r="3.6"/>
	<path d="M336,243.601c0.87,0,1.657-0.32,2.279-0.834c0.8-0.66,1.321-1.646,1.321-2.766c0,0,0,0,0-0.001
		c0-1.118-0.521-2.105-1.321-2.766c-0.622-0.513-1.409-0.834-2.279-0.834c-1.989,0-3.601,1.611-3.601,3.6c0,0.001,0,0.001,0,0.001
		C332.399,241.991,334.011,243.601,336,243.601z"/>
	<path d="M168,339.601c1.988,0,3.6-1.609,3.6-3.6c0,0,0,0,0-0.001c0-0.789-0.261-1.513-0.692-2.105
		c-1.534-0.332-3.06-0.686-4.574-1.068c-1.145,0.603-1.934,1.79-1.934,3.174c0,0.001,0,0.001,0,0.001
		C164.4,337.991,166.011,339.601,168,339.601z"/>
	<circle cx="156" cy="372" r="3.6"/>
	<path d="M144,339.601c1.988,0,3.6-1.609,3.6-3.6c0,0,0,0,0-0.001c0-1.988-1.612-3.6-3.6-3.6c-1.989,0-3.6,1.611-3.6,3.6
		c0,0.001,0,0.001,0,0.001C140.4,337.991,142.011,339.601,144,339.601z"/>
	<path d="M312,339.601c1.988,0,3.601-1.609,3.601-3.6c0,0,0,0,0-0.001c0-1.988-1.612-3.6-3.601-3.6c-1.989,0-3.601,1.611-3.601,3.6
		c0,0.001,0,0.001,0,0.001C308.399,337.991,310.011,339.601,312,339.601z"/>
	<circle cx="264" cy="360" r="3.6"/>
	<path d="M312,291.601c1.988,0,3.601-1.609,3.601-3.6c0,0,0,0,0-0.001c0-1.988-1.612-3.6-3.601-3.6c-1.989,0-3.601,1.611-3.601,3.6
		c0,0.001,0,0.001,0,0.001C308.399,289.991,310.011,291.601,312,291.601z"/>
	<path d="M336,339.601c0.87,0,1.657-0.32,2.279-0.834c0.8-0.66,1.321-1.646,1.321-2.766c0,0,0,0,0-0.001
		c0-1.118-0.521-2.105-1.321-2.766c-0.622-0.513-1.409-0.834-2.279-0.834c-1.989,0-3.601,1.611-3.601,3.6c0,0.001,0,0.001,0,0.001
		C332.399,337.991,334.011,339.601,336,339.601z"/>
	<path d="M336,291.601c0.87,0,1.657-0.32,2.279-0.834c0.8-0.66,1.321-1.646,1.321-2.766c0,0,0,0,0-0.001
		c0-1.118-0.521-2.105-1.321-2.766c-0.622-0.513-1.409-0.834-2.279-0.834c-1.989,0-3.601,1.611-3.601,3.6c0,0.001,0,0.001,0,0.001
		C332.399,289.991,334.011,291.601,336,291.601z"/>
	<path d="M327.6,252c0-0.481-0.099-0.938-0.27-1.357c-0.628,1.578-1.289,3.14-1.974,4.688C326.672,254.795,327.6,253.509,327.6,252z
		"/>
	<circle cx="312" cy="312" r="3.6"/>
	<circle cx="312" cy="360" r="3.6"/>
	<circle cx="276" cy="324" r="3.6"/>
	<circle cx="276" cy="372" r="3.6"/>
	<path d="M264,339.601c1.988,0,3.601-1.609,3.601-3.6c0,0,0,0,0-0.001c0-1.988-1.612-3.6-3.601-3.6c-1.989,0-3.601,1.611-3.601,3.6
		c0,0.001,0,0.001,0,0.001C260.399,337.991,262.011,339.601,264,339.601z"/>
	<circle cx="276" cy="348" r="3.6"/>
	<path d="M288,339.601c0.87,0,1.657-0.32,2.279-0.834c0.8-0.66,1.321-1.646,1.321-2.766c0,0,0,0,0-0.001
		c0-1.118-0.521-2.105-1.321-2.766c-0.622-0.513-1.409-0.834-2.279-0.834c-1.989,0-3.601,1.611-3.601,3.6c0,0.001,0,0.001,0,0.001
		C284.399,337.991,286.011,339.601,288,339.601z"/>
	<path d="M288,363.6c0.87,0,1.657-0.32,2.279-0.834c0.8-0.66,1.321-1.646,1.321-2.766c0-1.118-0.521-2.105-1.321-2.766
		c-0.622-0.513-1.409-0.834-2.279-0.834c-1.989,0-3.601,1.611-3.601,3.6C284.399,361.99,286.011,363.6,288,363.6z"/>
	<path d="M288,315.6c0.87,0,1.657-0.32,2.279-0.834c0.8-0.66,1.321-1.646,1.321-2.766c0-1.118-0.521-2.105-1.321-2.766
		c-0.622-0.513-1.409-0.834-2.279-0.834c-1.989,0-3.601,1.611-3.601,3.6C284.399,313.99,286.011,315.6,288,315.6z"/>
	<path d="M216,51.601c1.988,0,3.601-1.609,3.601-3.6v0v0c0-1.988-1.612-3.6-3.601-3.6c-1.989,0-3.601,1.611-3.601,3.6v0v0
		C212.399,49.991,214.011,51.601,216,51.601z"/>
	<circle cx="36" cy="132" r="3.6"/>
	<circle cx="36" cy="156" r="3.6"/>
	<circle cx="36" cy="180" r="3.6"/>
	<circle cx="36" cy="204" r="3.6"/>
	<circle cx="36" cy="36" r="3.6"/>
	<circle cx="36" cy="228" r="3.6"/>
	<circle cx="36" cy="84" r="3.6"/>
	<circle cx="36" cy="108" r="3.6"/>
	<circle cx="36" cy="252" r="3.6"/>
	<circle cx="36" cy="60" r="3.6"/>
	<circle cx="36" cy="348" r="3.6"/>
	<path d="M48,339.601c1.988,0,3.6-1.609,3.6-3.6c0,0,0,0,0-0.001c0-1.988-1.612-3.6-3.6-3.6c-1.989,0-3.6,1.611-3.6,3.6
		c0,0.001,0,0.001,0,0.001C44.4,337.991,46.011,339.601,48,339.601z"/>
	<circle cx="36" cy="372" r="3.6"/>
	<circle cx="36" cy="276" r="3.6"/>
	<circle cx="36" cy="300" r="3.6"/>
	<circle cx="36" cy="324" r="3.6"/>
	<circle cx="24" cy="24" r="3.6"/>
	<path d="M24,147.601c1.988,0,3.6-1.609,3.6-3.6v0v0c0-1.988-1.612-3.6-3.6-3.6c-1.989,0-3.6,1.611-3.6,3.6v0v0
		C20.4,145.991,22.011,147.601,24,147.601z"/>
	<path d="M168,51.601c1.988,0,3.6-1.609,3.6-3.6v0v0c0-1.988-1.612-3.6-3.6-3.6c-1.989,0-3.6,1.611-3.6,3.6v0v0
		C164.4,49.991,166.011,51.601,168,51.601z"/>
	<path d="M24,99.601c1.988,0,3.6-1.609,3.6-3.6v0v0c0-1.988-1.612-3.6-3.6-3.6c-1.989,0-3.6,1.611-3.6,3.6v0v0
		C20.4,97.991,22.011,99.601,24,99.601z"/>
	<path d="M24,291.601c1.988,0,3.6-1.609,3.6-3.6c0,0,0,0,0-0.001c0-1.988-1.612-3.6-3.6-3.6c-1.989,0-3.6,1.611-3.6,3.6
		c0,0.001,0,0.001,0,0.001C20.4,289.991,22.011,291.601,24,291.601z"/>
	<path d="M24,339.601c1.988,0,3.6-1.609,3.6-3.6c0,0,0,0,0-0.001c0-1.988-1.612-3.6-3.6-3.6c-1.989,0-3.6,1.611-3.6,3.6
		c0,0.001,0,0.001,0,0.001C20.4,337.991,22.011,339.601,24,339.601z"/>
	<path d="M24,51.601c1.988,0,3.6-1.609,3.6-3.6v0v0c0-1.988-1.612-3.6-3.6-3.6c-1.989,0-3.6,1.611-3.6,3.6v0v0
		C20.4,49.991,22.011,51.601,24,51.601z"/>
	<path d="M24,243.601c1.988,0,3.6-1.609,3.6-3.6c0,0,0,0,0-0.001c0-1.988-1.612-3.6-3.6-3.6c-1.989,0-3.6,1.611-3.6,3.6
		c0,0.001,0,0.001,0,0.001C20.4,241.991,22.011,243.601,24,243.601z"/>
	<circle cx="24" cy="72" r="3.6"/>
	<circle cx="24" cy="264" r="3.6"/>
	<circle cx="24" cy="216" r="3.6"/>
	<path d="M48,291.601c1.988,0,3.6-1.609,3.6-3.6c0,0,0,0,0-0.001c0-1.988-1.612-3.6-3.6-3.6c-1.989,0-3.6,1.611-3.6,3.6
		c0,0.001,0,0.001,0,0.001C44.4,289.991,46.011,291.601,48,291.601z"/>
	<circle cx="24" cy="312" r="3.6"/>
	<circle cx="24" cy="168" r="3.6"/>
	<circle cx="24" cy="360" r="3.6"/>
	<circle cx="24" cy="120" r="3.6"/>
	<path d="M24,195.601c1.988,0,3.6-1.609,3.6-3.6v0v0c0-1.988-1.612-3.6-3.6-3.6c-1.989,0-3.6,1.611-3.6,3.6v0v0
		C20.4,193.991,22.011,195.601,24,195.601z"/>
	<circle cx="96" cy="72" r="3.6"/>
	<path d="M83.104,128.526c-1.553,0.399-2.705,1.796-2.705,3.474c0,0.318,0.054,0.621,0.131,0.915
		C81.364,131.435,82.219,129.971,83.104,128.526z"/>
	<circle cx="108" cy="36" r="3.6"/>
	<path d="M96,51.601c1.988,0,3.6-1.609,3.6-3.6v0v0c0-1.988-1.612-3.6-3.6-3.6c-1.989,0-3.6,1.611-3.6,3.6v0v0
		C92.4,49.991,94.011,51.601,96,51.601z"/>
	<path d="M96,99.601c1.988,0,3.6-1.609,3.6-3.6v0v0c0-1.988-1.612-3.6-3.6-3.6c-1.989,0-3.6,1.611-3.6,3.6v0v0
		C92.4,97.991,94.011,99.601,96,99.601z"/>
	<circle cx="108" cy="84" r="3.6"/>
	<circle cx="96" cy="24" r="3.6"/>
	<circle cx="108" cy="60" r="3.6"/>
	<circle cx="156" cy="60" r="3.6"/>
	<circle cx="156" cy="36" r="3.6"/>
	<path d="M144,51.601c1.988,0,3.6-1.609,3.6-3.6v0v0c0-1.988-1.612-3.6-3.6-3.6c-1.989,0-3.6,1.611-3.6,3.6v0v0
		C140.4,49.991,142.011,51.601,144,51.601z"/>
	<path d="M120,51.601c1.988,0,3.6-1.609,3.6-3.6v0v0c0-1.988-1.612-3.6-3.6-3.6c-1.989,0-3.6,1.611-3.6,3.6v0v0
		C116.4,49.991,118.011,51.601,120,51.601z"/>
	<path d="M142.934,75.421c1.425-0.653,2.862-1.284,4.313-1.89c0.22-0.466,0.353-0.981,0.353-1.531c0-1.988-1.612-3.6-3.6-3.6
		c-1.989,0-3.6,1.611-3.6,3.6C140.4,73.616,141.469,74.965,142.934,75.421z"/>
	<circle cx="120" cy="24" r="3.6"/>
	<circle cx="120" cy="72" r="3.6"/>
	<path d="M48,195.601c1.988,0,3.6-1.609,3.6-3.6v0v0c0-1.988-1.612-3.6-3.6-3.6c-1.989,0-3.6,1.611-3.6,3.6v0v0
		C44.4,193.991,46.011,195.601,48,195.601z"/>
	<circle cx="48" cy="120" r="3.6"/>
	<circle cx="48" cy="72" r="3.6"/>
	<path d="M48,51.601c1.988,0,3.6-1.609,3.6-3.6v0v0c0-1.988-1.612-3.6-3.6-3.6c-1.989,0-3.6,1.611-3.6,3.6v0v0
		C44.4,49.991,46.011,51.601,48,51.601z"/>
	<circle cx="48" cy="24" r="3.6"/>
	<path d="M48,243.601c1.988,0,3.6-1.609,3.6-3.6c0,0,0,0,0-0.001c0-1.988-1.612-3.6-3.6-3.6c-1.989,0-3.6,1.611-3.6,3.6
		c0,0.001,0,0.001,0,0.001C44.4,241.991,46.011,243.601,48,243.601z"/>
	<path d="M48,99.601c1.988,0,3.6-1.609,3.6-3.6v0v0c0-1.988-1.612-3.6-3.6-3.6c-1.989,0-3.6,1.611-3.6,3.6v0v0
		C44.4,97.991,46.011,99.601,48,99.601z"/>
	<path d="M48,147.601c1.988,0,3.6-1.609,3.6-3.6v0v0c0-1.988-1.612-3.6-3.6-3.6c-1.989,0-3.6,1.611-3.6,3.6v0v0
		C44.4,145.991,46.011,147.601,48,147.601z"/>
	<circle cx="48" cy="216" r="3.6"/>
	<path d="M72,147.601c0.55,0,1.065-0.133,1.531-0.353c0.605-1.451,1.236-2.888,1.89-4.313C74.965,141.47,73.614,140.4,72,140.4
		c-1.989,0-3.6,1.611-3.6,3.6v0v0C68.4,145.991,70.011,147.601,72,147.601z"/>
	<path d="M72,99.601c1.988,0,3.6-1.609,3.6-3.6v0v0c0-1.988-1.612-3.6-3.6-3.6c-1.989,0-3.6,1.611-3.6,3.6v0v0
		C68.4,97.991,70.011,99.601,72,99.601z"/>
	<circle cx="48" cy="360" r="3.6"/>
	<path d="M72,51.601c1.988,0,3.6-1.609,3.6-3.6v0v0c0-1.988-1.612-3.6-3.6-3.6c-1.989,0-3.6,1.611-3.6,3.6v0v0
		C68.4,49.991,70.011,51.601,72,51.601z"/>
	<circle cx="48" cy="168" r="3.6"/>
	<circle cx="48" cy="312" r="3.6"/>
	<circle cx="48" cy="264" r="3.6"/>
	<circle cx="324" cy="300" r="3.6"/>
	<circle cx="348" cy="84" r="3.6"/>
	<circle cx="348" cy="36" r="3.6"/>
	<circle cx="348" cy="108" r="3.6"/>
	<circle cx="348" cy="132" r="3.6"/>
	<circle cx="60" cy="372" r="3.6"/>
	<circle cx="348" cy="348" r="3.6"/>
	<circle cx="348" cy="156" r="3.6"/>
	<circle cx="348" cy="60" r="3.6"/>
	<circle cx="348" cy="252" r="3.6"/>
	<circle cx="348" cy="300" r="3.6"/>
	<circle cx="348" cy="276" r="3.6"/>
	<circle cx="348" cy="180" r="3.6"/>
	<circle cx="348" cy="324" r="3.6"/>
	<circle cx="348" cy="204" r="3.6"/>
	<circle cx="60" cy="324" r="3.6"/>
	<circle cx="348" cy="228" r="3.6"/>
	<circle cx="60" cy="348" r="3.6"/>
	<circle cx="60" cy="108" r="3.6"/>
	<circle cx="60" cy="60" r="3.6"/>
	<circle cx="60" cy="84" r="3.6"/>
	<circle cx="60" cy="36" r="3.6"/>
	<circle cx="72" cy="24" r="3.6"/>
	<circle cx="72" cy="72" r="3.6"/>
	<circle cx="72" cy="120" r="3.6"/>
	<circle cx="60" cy="300" r="3.6"/>
	<circle cx="60" cy="252" r="3.6"/>
	<circle cx="60" cy="276" r="3.6"/>
	<circle cx="60" cy="228" r="3.6"/>
	<circle cx="60" cy="156" r="3.6"/>
	<circle cx="60" cy="132" r="3.6"/>
	<path d="M60,207.6c1.35,0,2.513-0.751,3.129-1.851c-0.051-1.225-0.084-2.453-0.103-3.687c-0.641-0.997-1.753-1.662-3.026-1.662
		c-1.989,0-3.6,1.611-3.6,3.6C56.4,205.99,58.011,207.6,60,207.6z"/>
	<circle cx="60" cy="180" r="3.6"/>
	<circle cx="348" cy="372" r="3.6"/>
	<circle cx="372" cy="180" r="3.6"/>
	<circle cx="372" cy="204" r="3.6"/>
	<circle cx="372" cy="156" r="3.6"/>
	<circle cx="372" cy="60" r="3.6"/>
	<circle cx="372" cy="132" r="3.6"/>
	<circle cx="372" cy="228" r="3.6"/>
	<circle cx="372" cy="108" r="3.6"/>
	<circle cx="372" cy="372" r="3.6"/>
	<circle cx="372" cy="348" r="3.6"/>
	<circle cx="372" cy="252" r="3.6"/>
	<circle cx="372" cy="36" r="3.6"/>
	<circle cx="372" cy="84" r="3.6"/>
	<circle cx="372" cy="276" r="3.6"/>
	<circle cx="372" cy="324" r="3.6"/>
	<circle cx="372" cy="300" r="3.6"/>
	<circle cx="360" cy="120" r="3.6"/>
	<path d="M360,147.601c1.988,0,3.601-1.609,3.601-3.6v0v0c0-1.988-1.612-3.6-3.601-3.6c-1.989,0-3.601,1.611-3.601,3.6v0v0
		C356.399,145.991,358.011,147.601,360,147.601z"/>
	<path d="M360,51.601c1.988,0,3.601-1.609,3.601-3.6v0v0c0-1.988-1.612-3.6-3.601-3.6c-1.989,0-3.601,1.611-3.601,3.6v0v0
		C356.399,49.991,358.011,51.601,360,51.601z"/>
	<path d="M360,195.601c1.988,0,3.601-1.609,3.601-3.6v0v0c0-1.988-1.612-3.6-3.601-3.6c-1.989,0-3.601,1.611-3.601,3.6v0v0
		C356.399,193.991,358.011,195.601,360,195.601z"/>
	<path d="M360,99.601c1.988,0,3.601-1.609,3.601-3.6v0v0c0-1.988-1.612-3.6-3.601-3.6c-1.989,0-3.601,1.611-3.601,3.6v0v0
		C356.399,97.991,358.011,99.601,360,99.601z"/>
	<path d="M360,339.601c1.988,0,3.601-1.609,3.601-3.6c0,0,0,0,0-0.001c0-1.988-1.612-3.6-3.601-3.6c-1.989,0-3.601,1.611-3.601,3.6
		c0,0.001,0,0.001,0,0.001C356.399,337.991,358.011,339.601,360,339.601z"/>
	<path d="M360,291.601c1.988,0,3.601-1.609,3.601-3.6c0,0,0,0,0-0.001c0-1.988-1.612-3.6-3.601-3.6c-1.989,0-3.601,1.611-3.601,3.6
		c0,0.001,0,0.001,0,0.001C356.399,289.991,358.011,291.601,360,291.601z"/>
	<path d="M360,243.601c1.988,0,3.601-1.609,3.601-3.6c0,0,0,0,0-0.001c0-1.988-1.612-3.6-3.601-3.6c-1.989,0-3.601,1.611-3.601,3.6
		c0,0.001,0,0.001,0,0.001C356.399,241.991,358.011,243.601,360,243.601z"/>
	<circle cx="360" cy="312" r="3.6"/>
	<circle cx="360" cy="216" r="3.6"/>
	<path d="M120,339.601c1.988,0,3.6-1.609,3.6-3.6c0,0,0,0,0-0.001c0-1.988-1.612-3.6-3.6-3.6c-1.989,0-3.6,1.611-3.6,3.6
		c0,0.001,0,0.001,0,0.001C116.4,337.991,118.011,339.601,120,339.601z"/>
	<circle cx="360" cy="360" r="3.6"/>
	<circle cx="360" cy="168" r="3.6"/>
	<circle cx="360" cy="24" r="3.6"/>
	<circle cx="360" cy="72" r="3.6"/>
	<circle cx="84" cy="108" r="3.6"/>
	<circle cx="360" cy="264" r="3.6"/>
	<path d="M120,315.6c1.449,0,2.69-0.86,3.261-2.095c-1.949-1.32-3.86-2.693-5.735-4.109c-0.69,0.655-1.126,1.577-1.126,2.604
		C116.4,313.99,118.011,315.6,120,315.6z"/>
	<circle cx="120" cy="360" r="3.6"/>
	<circle cx="168" cy="360" r="3.6"/>
	<circle cx="108" cy="348" r="3.6"/>
	<circle cx="108" cy="372" r="3.6"/>
	<path d="M192,339.601c1.669,0,3.061-1.141,3.468-2.684c-2.354-0.076-4.693-0.212-7.017-0.406
		C188.701,338.257,190.186,339.601,192,339.601z"/>
	<circle cx="108" cy="324" r="3.6"/>
	<path d="M108,303.6c0.657,0,1.264-0.188,1.794-0.496c-1.718-1.504-3.397-3.052-5.038-4.64c-0.222,0.468-0.356,0.984-0.356,1.536
		C104.4,301.99,106.011,303.6,108,303.6z"/>
	<circle cx="300" cy="348" r="3.6"/>
	<circle cx="192" cy="360" r="3.6"/>
	<path d="M252,327.6c1.508,0,2.796-0.928,3.332-2.243c-1.55,0.685-3.111,1.346-4.69,1.974C251.062,327.502,251.519,327.6,252,327.6z
		"/>
	<circle cx="300" cy="372" r="3.6"/>
	<circle cx="216" cy="360" r="3.6"/>
	<circle cx="252" cy="372" r="3.6"/>
	<circle cx="252" cy="348" r="3.6"/>
	<path d="M69.853,242.876c-0.438-1.329-0.854-2.667-1.252-4.014C68.48,239.222,68.4,239.6,68.4,240c0,0.001,0,0.001,0,0.001
		C68.4,241.183,68.976,242.221,69.853,242.876z"/>
	<circle cx="84" cy="84" r="3.6"/>
	<circle cx="72" cy="312" r="3.6"/>
	<circle cx="300" cy="324" r="3.6"/>
	<circle cx="72" cy="264" r="3.6"/>
	<path d="M72,339.601c1.988,0,3.6-1.609,3.6-3.6c0,0,0,0,0-0.001c0-1.988-1.612-3.6-3.6-3.6c-1.989,0-3.6,1.611-3.6,3.6
		c0,0.001,0,0.001,0,0.001C68.4,337.991,70.011,339.601,72,339.601z"/>
	<path d="M96,339.601c1.988,0,3.6-1.609,3.6-3.6c0,0,0,0,0-0.001c0-1.988-1.612-3.6-3.6-3.6c-1.989,0-3.6,1.611-3.6,3.6
		c0,0.001,0,0.001,0,0.001C92.4,337.991,94.011,339.601,96,339.601z"/>
	<path d="M72,291.601c1.988,0,3.6-1.609,3.6-3.6c0,0,0,0,0-0.001c0-1.988-1.612-3.6-3.6-3.6c-1.989,0-3.6,1.611-3.6,3.6
		c0,0.001,0,0.001,0,0.001C68.4,289.991,70.011,291.601,72,291.601z"/>
	<path d="M96,291.601c0.629,0,1.211-0.176,1.726-0.459c-1.558-1.747-3.072-3.535-4.541-5.361c-0.484,0.613-0.786,1.378-0.786,2.22
		c0,0.001,0,0.001,0,0.001C92.4,289.991,94.011,291.601,96,291.601z"/>
	<circle cx="96" cy="360" r="3.6"/>
	<path d="M84,279.6c1.372,0,2.551-0.775,3.158-1.904c-1.191-1.727-2.343-3.482-3.456-5.265c-1.848,0.153-3.303,1.683-3.303,3.569
		C80.4,277.99,82.011,279.6,84,279.6z"/>
	<circle cx="96" cy="312" r="3.6"/>
	<circle cx="84" cy="348" r="3.6"/>
	<circle cx="84" cy="300" r="3.6"/>
	<circle cx="84" cy="372" r="3.6"/>
	<circle cx="84" cy="324" r="3.6"/>
	<circle cx="72" cy="360" r="3.6"/>
	<path d="M276,80.4c-1.887,0-3.416,1.455-3.57,3.3c1.783,1.113,3.539,2.265,5.266,3.457c1.129-0.607,1.904-1.784,1.904-3.157
		C279.6,82.012,277.988,80.4,276,80.4z"/>
	<circle cx="276" cy="36" r="3.6"/>
	<path d="M240,27.6c0.87,0,1.657-0.321,2.279-0.834c0.8-0.66,1.321-1.646,1.321-2.766c0-1.118-0.521-2.105-1.321-2.765
		C241.657,20.721,240.87,20.4,240,20.4c-1.989,0-3.601,1.611-3.601,3.6C236.399,25.99,238.011,27.6,240,27.6z"/>
	<path d="M288,27.6c0.87,0,1.657-0.321,2.279-0.834c0.8-0.66,1.321-1.646,1.321-2.766c0-1.118-0.521-2.105-1.321-2.765
		C289.657,20.721,288.87,20.4,288,20.4c-1.989,0-3.601,1.611-3.601,3.6C284.399,25.99,286.011,27.6,288,27.6z"/>
	<path d="M288,75.6c0.87,0,1.657-0.321,2.279-0.834c0.8-0.66,1.321-1.646,1.321-2.766c0-1.118-0.521-2.105-1.321-2.765
		C289.657,68.721,288.87,68.4,288,68.4c-1.989,0-3.601,1.611-3.601,3.6C284.399,73.99,286.011,75.6,288,75.6z"/>
	<circle cx="276" cy="60" r="3.6"/>
	<path d="M240,68.4c-0.399,0-0.776,0.08-1.135,0.2c1.344,0.397,2.681,0.813,4.008,1.25c-0.173-0.229-0.373-0.434-0.594-0.616
		C241.657,68.721,240.87,68.4,240,68.4z"/>
	<path d="M288,92.4c-0.842,0-1.606,0.301-2.219,0.784c1.826,1.469,3.613,2.982,5.361,4.541c0.283-0.514,0.458-1.096,0.458-1.725v0v0
		c0-1.118-0.521-2.105-1.321-2.765C289.657,92.721,288.87,92.4,288,92.4z"/>
	<circle cx="84" cy="60" r="3.6"/>
	<circle cx="84" cy="36" r="3.6"/>
	<path d="M128.526,83.104c1.444-0.885,2.908-1.74,4.387-2.573C132.62,80.455,132.317,80.4,132,80.4
		C130.322,80.4,128.926,81.552,128.526,83.104z"/>
	<circle cx="132" cy="36" r="3.6"/>
	<circle cx="204" cy="36" r="3.6"/>
	<circle cx="144" cy="24" r="3.6"/>
	<circle cx="132" cy="60" r="3.6"/>
	<circle cx="324" cy="276" r="3.6"/>
	<circle cx="300" cy="300" r="3.6"/>
	<path d="M336,363.6c0.87,0,1.657-0.32,2.279-0.834c0.8-0.66,1.321-1.646,1.321-2.766c0-1.118-0.521-2.105-1.321-2.766
		c-0.622-0.513-1.409-0.834-2.279-0.834c-1.989,0-3.601,1.611-3.601,3.6C332.399,361.99,334.011,363.6,336,363.6z"/>
	<circle cx="300" cy="84" r="3.6"/>
	<path d="M336,315.6c0.87,0,1.657-0.32,2.279-0.834c0.8-0.66,1.321-1.646,1.321-2.766c0-1.118-0.521-2.105-1.321-2.766
		c-0.622-0.513-1.409-0.834-2.279-0.834c-1.989,0-3.601,1.611-3.601,3.6C332.399,313.99,334.011,315.6,336,315.6z"/>
	<circle cx="324" cy="324" r="3.6"/>
	<circle cx="324" cy="348" r="3.6"/>
	<circle cx="324" cy="372" r="3.6"/>
	<path d="M336,267.6c0.87,0,1.657-0.32,2.279-0.834c0.8-0.66,1.321-1.646,1.321-2.766c0-1.118-0.521-2.105-1.321-2.766
		c-0.622-0.513-1.409-0.834-2.279-0.834c-1.989,0-3.601,1.611-3.601,3.6C332.399,265.99,334.011,267.6,336,267.6z"/>
	<circle cx="300" cy="60" r="3.6"/>
	<path d="M300,104.4c-0.552,0-1.067,0.134-1.535,0.355c1.588,1.641,3.136,3.32,4.641,5.038c0.307-0.53,0.495-1.137,0.495-1.793
		C303.601,106.012,301.988,104.4,300,104.4z"/>
	<path d="M336.432,212.443c-0.216,2.391-0.491,4.763-0.828,7.116c0.132,0.015,0.261,0.04,0.396,0.04c0.87,0,1.657-0.32,2.279-0.834
		c0.8-0.66,1.321-1.646,1.321-2.766c0-1.118-0.521-2.105-1.321-2.766C337.763,212.809,337.131,212.528,336.432,212.443z"/>
	<circle cx="300" cy="36" r="3.6"/>
	<circle cx="312" cy="24" r="3.6"/>
	<circle cx="312" cy="72" r="3.6"/>
	<path d="M312,116.4c-1.027,0-1.948,0.435-2.604,1.125c1.417,1.875,2.789,3.787,4.109,5.736c1.234-0.57,2.096-1.811,2.096-3.261
		C315.601,118.012,313.988,116.4,312,116.4z"/>
</g>
</svg>
