<?xml version="1.0" encoding="utf-8"?>
<!-- Generator: Adobe Illustrator 16.0.0, SVG Export Plug-In . SVG Version: 6.00 Build 0)  -->
<!DOCTYPE svg PUBLIC "-//W3C//DTD SVG 1.1//EN" "http://www.w3.org/Graphics/SVG/1.1/DTD/svg11.dtd">
<svg version="1.1" id="Layer_3" xmlns="http://www.w3.org/2000/svg" xmlns:xlink="http://www.w3.org/1999/xlink" x="0px" y="0px"
	 width="400px" height="400px" viewBox="0 0 400 400" enable-background="new 0 0 400 400" xml:space="preserve">
<g>
	<path d="M390,0H10C4.477,0,0,4.477,0,10v380c0,5.522,4.477,10,10,10h380c5.522,0,10-4.478,10-10V10C400,4.477,395.522,0,390,0z
		 M380,379.999H20V20h360V379.999z"/>
	<path d="M266.993,50c0.383-0.572,0.607-1.259,0.607-1.999v0v0c0-1.988-1.612-3.6-3.601-3.6c-1.989,0-3.601,1.611-3.601,3.6v0v0
		c0,0.74,0.225,1.427,0.606,1.999H266.993z"/>
	<circle cx="276" cy="36" r="3.6"/>
	<circle cx="252" cy="36" r="3.6"/>
	<circle cx="228" cy="36" r="3.6"/>
	<path d="M242.993,50c0.383-0.572,0.607-1.259,0.607-1.999v0v0c0-1.118-0.521-2.105-1.321-2.765
		C241.657,44.721,240.87,44.4,240,44.4c-1.989,0-3.601,1.611-3.601,3.6v0v0c0,0.74,0.225,1.427,0.606,1.999H242.993z"/>
	<circle cx="324" cy="36" r="3.6"/>
	<path d="M314.993,50c0.383-0.572,0.607-1.259,0.607-1.999v0v0c0-1.988-1.612-3.6-3.601-3.6c-1.989,0-3.601,1.611-3.601,3.6v0v0
		c0,0.74,0.225,1.427,0.606,1.999H314.993z"/>
	<path d="M290.993,50c0.383-0.572,0.607-1.259,0.607-1.999v0v0c0-1.118-0.521-2.105-1.321-2.765
		C289.657,44.721,288.87,44.4,288,44.4c-1.989,0-3.601,1.611-3.601,3.6v0v0c0,0.74,0.225,1.427,0.606,1.999H290.993z"/>
	<path d="M338.993,50c0.383-0.572,0.607-1.259,0.607-1.999v0v0c0-1.118-0.521-2.105-1.321-2.765
		C337.657,44.721,336.87,44.4,336,44.4c-1.989,0-3.601,1.611-3.601,3.6v0v0c0,0.74,0.225,1.427,0.606,1.999H338.993z"/>
	<circle cx="300" cy="36" r="3.6"/>
	<path d="M146.993,50c0.382-0.572,0.607-1.259,0.607-1.999v0v0c0-1.988-1.612-3.6-3.6-3.6c-1.989,0-3.6,1.611-3.6,3.6v0v0
		c0,0.74,0.224,1.427,0.607,1.999H146.993z"/>
	<circle cx="156" cy="36" r="3.6"/>
	<circle cx="132" cy="36" r="3.6"/>
	<circle cx="108" cy="36" r="3.6"/>
	<path d="M122.993,50c0.382-0.572,0.607-1.259,0.607-1.999v0v0c0-1.988-1.612-3.6-3.6-3.6c-1.989,0-3.6,1.611-3.6,3.6v0v0
		c0,0.74,0.224,1.427,0.607,1.999H122.993z"/>
	<path d="M194.993,50c0.382-0.572,0.607-1.259,0.607-1.999v0v0c0-1.988-1.612-3.6-3.6-3.6c-1.989,0-3.6,1.611-3.6,3.6v0v0
		c0,0.74,0.224,1.427,0.607,1.999H194.993z"/>
	<path d="M218.993,50c0.383-0.572,0.607-1.259,0.607-1.999v0v0c0-1.988-1.612-3.6-3.601-3.6c-1.989,0-3.601,1.611-3.601,3.6v0v0
		c0,0.74,0.225,1.427,0.606,1.999H218.993z"/>
	<path d="M170.993,50c0.382-0.572,0.607-1.259,0.607-1.999v0v0c0-1.988-1.612-3.6-3.6-3.6c-1.989,0-3.6,1.611-3.6,3.6v0v0
		c0,0.74,0.224,1.427,0.607,1.999H170.993z"/>
	<circle cx="204" cy="36" r="3.6"/>
	<circle cx="180" cy="36" r="3.6"/>
	<circle cx="108" cy="372" r="3.6"/>
	<circle cx="60" cy="372" r="3.6"/>
	<path d="M84,351.6c1.248,0,2.347-0.635,2.993-1.6h-5.985C81.653,350.965,82.751,351.6,84,351.6z"/>
	<path d="M60,351.6c1.248,0,2.347-0.635,2.993-1.6h-5.985C57.653,350.965,58.751,351.6,60,351.6z"/>
	<circle cx="96" cy="360" r="3.6"/>
	<circle cx="72" cy="360" r="3.6"/>
	<path d="M132,351.6c1.248,0,2.347-0.635,2.993-1.6h-5.985C129.653,350.965,130.751,351.6,132,351.6z"/>
	<circle cx="84" cy="372" r="3.6"/>
	<path d="M98.993,50c0.382-0.572,0.607-1.259,0.607-1.999v0v0c0-1.988-1.612-3.6-3.6-3.6c-1.989,0-3.6,1.611-3.6,3.6v0v0
		c0,0.74,0.224,1.427,0.607,1.999H98.993z"/>
	<path d="M108,351.6c1.248,0,2.347-0.635,2.993-1.6h-5.985C105.653,350.965,106.751,351.6,108,351.6z"/>
	<circle cx="168" cy="360" r="3.6"/>
	<path d="M288,363.6c0.87,0,1.657-0.32,2.279-0.834c0.8-0.66,1.321-1.646,1.321-2.766c0-1.118-0.521-2.105-1.321-2.766
		c-0.622-0.513-1.409-0.834-2.279-0.834c-1.989,0-3.601,1.611-3.601,3.6C284.399,361.99,286.011,363.6,288,363.6z"/>
	<circle cx="264" cy="360" r="3.6"/>
	<path d="M240,363.6c0.87,0,1.657-0.32,2.279-0.834c0.8-0.66,1.321-1.646,1.321-2.766c0-1.118-0.521-2.105-1.321-2.766
		c-0.622-0.513-1.409-0.834-2.279-0.834c-1.989,0-3.601,1.611-3.601,3.6C236.399,361.99,238.011,363.6,240,363.6z"/>
	<circle cx="312" cy="360" r="3.6"/>
	<circle cx="216" cy="360" r="3.6"/>
	<circle cx="132" cy="372" r="3.6"/>
	<circle cx="120" cy="360" r="3.6"/>
	<path d="M336,363.6c0.87,0,1.657-0.32,2.279-0.834c0.8-0.66,1.321-1.646,1.321-2.766c0-1.118-0.521-2.105-1.321-2.766
		c-0.622-0.513-1.409-0.834-2.279-0.834c-1.989,0-3.601,1.611-3.601,3.6C332.399,361.99,334.011,363.6,336,363.6z"/>
	<circle cx="192" cy="360" r="3.6"/>
	<circle cx="144" cy="360" r="3.6"/>
	<circle cx="24" cy="264" r="3.6"/>
	<circle cx="24" cy="312" r="3.6"/>
	<circle cx="24" cy="360" r="3.6"/>
	<circle cx="24" cy="168" r="3.6"/>
	<circle cx="24" cy="120" r="3.6"/>
	<circle cx="24" cy="216" r="3.6"/>
	<circle cx="84" cy="36" r="3.6"/>
	<circle cx="36" cy="132" r="3.6"/>
	<circle cx="36" cy="84" r="3.6"/>
	<circle cx="36" cy="36" r="3.6"/>
	<circle cx="36" cy="60" r="3.6"/>
	<circle cx="24" cy="72" r="3.6"/>
	<path d="M24,291.601c1.988,0,3.6-1.609,3.6-3.6c0,0,0,0,0-0.001c0-1.988-1.612-3.6-3.6-3.6c-1.989,0-3.6,1.611-3.6,3.6
		c0,0.001,0,0.001,0,0.001C20.4,289.991,22.011,291.601,24,291.601z"/>
	<path d="M24,339.601c1.988,0,3.6-1.609,3.6-3.6c0,0,0,0,0-0.001c0-1.988-1.612-3.6-3.6-3.6c-1.989,0-3.6,1.611-3.6,3.6
		c0,0.001,0,0.001,0,0.001C20.4,337.991,22.011,339.601,24,339.601z"/>
	<path d="M24,195.601c1.988,0,3.6-1.609,3.6-3.6v0v0c0-1.988-1.612-3.6-3.6-3.6c-1.989,0-3.6,1.611-3.6,3.6v0v0
		C20.4,193.991,22.011,195.601,24,195.601z"/>
	<path d="M24,243.601c1.988,0,3.6-1.609,3.6-3.6c0,0,0,0,0-0.001c0-1.988-1.612-3.6-3.6-3.6c-1.989,0-3.6,1.611-3.6,3.6
		c0,0.001,0,0.001,0,0.001C20.4,241.991,22.011,243.601,24,243.601z"/>
	<path d="M24,51.601c1.988,0,3.6-1.609,3.6-3.6v0v0c0-1.988-1.612-3.6-3.6-3.6c-1.989,0-3.6,1.611-3.6,3.6v0v0
		C20.4,49.991,22.011,51.601,24,51.601z"/>
	<circle cx="24" cy="24" r="3.6"/>
	<path d="M24,99.601c1.988,0,3.6-1.609,3.6-3.6v0v0c0-1.988-1.612-3.6-3.6-3.6c-1.989,0-3.6,1.611-3.6,3.6v0v0
		C20.4,97.991,22.011,99.601,24,99.601z"/>
	<path d="M24,147.601c1.988,0,3.6-1.609,3.6-3.6v0v0c0-1.988-1.612-3.6-3.6-3.6c-1.989,0-3.6,1.611-3.6,3.6v0v0
		C20.4,145.991,22.011,147.601,24,147.601z"/>
	<circle cx="36" cy="108" r="3.6"/>
	<path d="M48,147.601c0.74,0,1.428-0.225,2-0.607v-5.985c-0.572-0.383-1.26-0.608-2-0.608c-1.989,0-3.6,1.611-3.6,3.6v0v0
		C44.4,145.991,46.011,147.601,48,147.601z"/>
	<path d="M48,243.601c0.74,0,1.428-0.225,2-0.607v-5.985c-0.572-0.383-1.26-0.607-2-0.607c-1.989,0-3.6,1.611-3.6,3.6
		c0,0.001,0,0.001,0,0.001C44.4,241.991,46.011,243.601,48,243.601z"/>
	<path d="M48,195.601c0.74,0,1.428-0.225,2-0.607v-5.985c-0.572-0.383-1.26-0.608-2-0.608c-1.989,0-3.6,1.611-3.6,3.6v0v0
		C44.4,193.991,46.011,195.601,48,195.601z"/>
	<path d="M48,291.601c0.74,0,1.428-0.225,2-0.607v-5.985c-0.572-0.383-1.26-0.607-2-0.607c-1.989,0-3.6,1.611-3.6,3.6
		c0,0.001,0,0.001,0,0.001C44.4,289.991,46.011,291.601,48,291.601z"/>
	<path d="M48,339.601c0.74,0,1.428-0.225,2-0.607v-5.985c-0.572-0.383-1.26-0.607-2-0.607c-1.989,0-3.6,1.611-3.6,3.6
		c0,0.001,0,0.001,0,0.001C44.4,337.991,46.011,339.601,48,339.601z"/>
	<circle cx="60" cy="36" r="3.6"/>
	<path d="M48,99.601c0.74,0,1.428-0.225,2-0.607v-5.985c-0.572-0.383-1.26-0.608-2-0.608c-1.989,0-3.6,1.611-3.6,3.6v0v0
		C44.4,97.991,46.011,99.601,48,99.601z"/>
	<path d="M74.993,50c0.382-0.572,0.607-1.259,0.607-1.999v0v0c0-1.988-1.612-3.6-3.6-3.6c-1.989,0-3.6,1.611-3.6,3.6v0v0
		c0,0.74,0.224,1.427,0.607,1.999H74.993z"/>
	<circle cx="36" cy="156" r="3.6"/>
	<path d="M48,51.601c0.74,0,1.428-0.225,2-0.607V50h0.993c0.382-0.572,0.607-1.259,0.607-1.999v0v0c0-1.988-1.612-3.6-3.6-3.6
		c-1.989,0-3.6,1.611-3.6,3.6v0v0C44.4,49.991,46.011,51.601,48,51.601z"/>
	<circle cx="36" cy="228" r="3.6"/>
	<circle cx="36" cy="252" r="3.6"/>
	<circle cx="36" cy="204" r="3.6"/>
	<circle cx="36" cy="180" r="3.6"/>
	<circle cx="36" cy="348" r="3.6"/>
	<circle cx="36" cy="324" r="3.6"/>
	<circle cx="36" cy="276" r="3.6"/>
	<circle cx="36" cy="372" r="3.6"/>
	<circle cx="36" cy="300" r="3.6"/>
	<circle cx="360" cy="216" r="3.6"/>
	<path d="M360,195.601c1.988,0,3.601-1.609,3.601-3.6v0v0c0-1.988-1.612-3.6-3.601-3.6c-1.989,0-3.601,1.611-3.601,3.6v0v0
		C356.399,193.991,358.011,195.601,360,195.601z"/>
	<path d="M360,243.601c1.988,0,3.601-1.609,3.601-3.6c0,0,0,0,0-0.001c0-1.988-1.612-3.6-3.601-3.6c-1.989,0-3.601,1.611-3.601,3.6
		c0,0.001,0,0.001,0,0.001C356.399,241.991,358.011,243.601,360,243.601z"/>
	<path d="M360,291.601c1.988,0,3.601-1.609,3.601-3.6c0,0,0,0,0-0.001c0-1.988-1.612-3.6-3.601-3.6c-1.989,0-3.601,1.611-3.601,3.6
		c0,0.001,0,0.001,0,0.001C356.399,289.991,358.011,291.601,360,291.601z"/>
	<path d="M360,339.601c1.988,0,3.601-1.609,3.601-3.6c0,0,0,0,0-0.001c0-1.988-1.612-3.6-3.601-3.6c-1.989,0-3.601,1.611-3.601,3.6
		c0,0.001,0,0.001,0,0.001C356.399,337.991,358.011,339.601,360,339.601z"/>
	<path d="M360,147.601c1.988,0,3.601-1.609,3.601-3.6v0v0c0-1.988-1.612-3.6-3.601-3.6c-1.989,0-3.601,1.611-3.601,3.6v0v0
		C356.399,145.991,358.011,147.601,360,147.601z"/>
	<circle cx="360" cy="120" r="3.6"/>
	<circle cx="120" cy="24" r="3.6"/>
	<circle cx="360" cy="24" r="3.6"/>
	<path d="M360,51.601c1.988,0,3.601-1.609,3.601-3.6v0v0c0-1.988-1.612-3.6-3.601-3.6c-1.989,0-3.601,1.611-3.601,3.6v0v0
		C356.399,49.991,358.011,51.601,360,51.601z"/>
	<circle cx="48" cy="360" r="3.6"/>
	<path d="M360,99.601c1.988,0,3.601-1.609,3.601-3.6v0v0c0-1.988-1.612-3.6-3.601-3.6c-1.989,0-3.601,1.611-3.601,3.6v0v0
		C356.399,97.991,358.011,99.601,360,99.601z"/>
	<path d="M48,75.6c0.74,0,1.428-0.225,2-0.607v-5.984c-0.572-0.383-1.26-0.608-2-0.608c-1.989,0-3.6,1.611-3.6,3.6
		C44.4,73.99,46.011,75.6,48,75.6z"/>
	<circle cx="72" cy="24" r="3.6"/>
	<path d="M48,315.6c0.74,0,1.428-0.225,2-0.607v-5.984c-0.572-0.383-1.26-0.607-2-0.607c-1.989,0-3.6,1.611-3.6,3.6
		C44.4,313.99,46.011,315.6,48,315.6z"/>
	<circle cx="96" cy="24" r="3.6"/>
	<circle cx="48" cy="24" r="3.6"/>
	<path d="M48,123.6c0.74,0,1.428-0.225,2-0.607v-5.984c-0.572-0.383-1.26-0.608-2-0.608c-1.989,0-3.6,1.611-3.6,3.6
		C44.4,121.99,46.011,123.6,48,123.6z"/>
	<path d="M48,219.6c0.74,0,1.428-0.225,2-0.607v-5.984c-0.572-0.383-1.26-0.607-2-0.607c-1.989,0-3.6,1.611-3.6,3.6
		C44.4,217.99,46.011,219.6,48,219.6z"/>
	<path d="M48,267.6c0.74,0,1.428-0.225,2-0.607v-5.984c-0.572-0.383-1.26-0.607-2-0.607c-1.989,0-3.6,1.611-3.6,3.6
		C44.4,265.99,46.011,267.6,48,267.6z"/>
	<path d="M48,171.6c0.74,0,1.428-0.225,2-0.607v-5.984c-0.572-0.383-1.26-0.608-2-0.608c-1.989,0-3.6,1.611-3.6,3.6
		C44.4,169.99,46.011,171.6,48,171.6z"/>
	<circle cx="360" cy="72" r="3.6"/>
	<circle cx="372" cy="300" r="3.6"/>
	<circle cx="372" cy="252" r="3.6"/>
	<circle cx="372" cy="204" r="3.6"/>
	<circle cx="372" cy="228" r="3.6"/>
	<circle cx="372" cy="276" r="3.6"/>
	<circle cx="360" cy="168" r="3.6"/>
	<circle cx="372" cy="372" r="3.6"/>
	<circle cx="372" cy="36" r="3.6"/>
	<circle cx="372" cy="348" r="3.6"/>
	<circle cx="372" cy="324" r="3.6"/>
	<circle cx="372" cy="180" r="3.6"/>
	<circle cx="360" cy="312" r="3.6"/>
	<circle cx="372" cy="84" r="3.6"/>
	<circle cx="360" cy="264" r="3.6"/>
	<circle cx="360" cy="360" r="3.6"/>
	<circle cx="372" cy="156" r="3.6"/>
	<circle cx="372" cy="60" r="3.6"/>
	<circle cx="372" cy="132" r="3.6"/>
	<circle cx="372" cy="108" r="3.6"/>
	<path d="M228,351.6c1.248,0,2.347-0.635,2.992-1.6h-5.985C225.652,350.965,226.751,351.6,228,351.6z"/>
	<circle cx="300" cy="372" r="3.6"/>
	<path d="M300,351.6c1.248,0,2.347-0.635,2.993-1.6h-5.986C297.652,350.965,298.751,351.6,300,351.6z"/>
	<circle cx="276" cy="372" r="3.6"/>
	<path d="M324,351.6c1.248,0,2.347-0.635,2.992-1.6h-5.985C321.652,350.965,322.751,351.6,324,351.6z"/>
	<path d="M350,321.008v5.984c0.965-0.646,1.601-1.743,1.601-2.992C351.601,322.752,350.965,321.653,350,321.008z"/>
	<path d="M276,351.6c1.248,0,2.347-0.635,2.992-1.6h-5.985C273.652,350.965,274.751,351.6,276,351.6z"/>
	<circle cx="348" cy="372" r="3.6"/>
	<circle cx="324" cy="372" r="3.6"/>
	<path d="M350,345.008V350h-4.993c0.646,0.965,1.744,1.6,2.993,1.6c1.988,0,3.601-1.609,3.601-3.6
		C351.601,346.752,350.965,345.653,350,345.008z"/>
	<circle cx="204" cy="372" r="3.6"/>
	<circle cx="180" cy="372" r="3.6"/>
	<path d="M204,351.6c1.248,0,2.347-0.635,2.993-1.6h-5.986C201.652,350.965,202.751,351.6,204,351.6z"/>
	<path d="M180,351.6c1.248,0,2.347-0.635,2.993-1.6h-5.985C177.653,350.965,178.751,351.6,180,351.6z"/>
	<circle cx="156" cy="372" r="3.6"/>
	<path d="M350,297.008v5.984c0.965-0.646,1.601-1.743,1.601-2.992C351.601,298.752,350.965,297.653,350,297.008z"/>
	<circle cx="252" cy="372" r="3.6"/>
	<path d="M252,351.6c1.248,0,2.347-0.635,2.993-1.6h-5.986C249.652,350.965,250.751,351.6,252,351.6z"/>
	<circle cx="228" cy="372" r="3.6"/>
	<path d="M156,351.6c1.248,0,2.347-0.635,2.993-1.6h-5.985C153.653,350.965,154.751,351.6,156,351.6z"/>
	<path d="M240,27.6c0.87,0,1.657-0.321,2.279-0.834c0.8-0.66,1.321-1.646,1.321-2.766c0-1.118-0.521-2.105-1.321-2.765
		C241.657,20.721,240.87,20.4,240,20.4c-1.989,0-3.601,1.611-3.601,3.6C236.399,25.99,238.011,27.6,240,27.6z"/>
	<circle cx="348" cy="36" r="3.6"/>
	<path d="M288,27.6c0.87,0,1.657-0.321,2.279-0.834c0.8-0.66,1.321-1.646,1.321-2.766c0-1.118-0.521-2.105-1.321-2.765
		C289.657,20.721,288.87,20.4,288,20.4c-1.989,0-3.601,1.611-3.601,3.6C284.399,25.99,286.011,27.6,288,27.6z"/>
	<path d="M336,27.6c0.87,0,1.657-0.321,2.279-0.834c0.8-0.66,1.321-1.646,1.321-2.766c0-1.118-0.521-2.105-1.321-2.765
		C337.657,20.721,336.87,20.4,336,20.4c-1.989,0-3.601,1.611-3.601,3.6C332.399,25.99,334.011,27.6,336,27.6z"/>
	<circle cx="264" cy="24" r="3.6"/>
	<circle cx="312" cy="24" r="3.6"/>
	<circle cx="192" cy="24" r="3.6"/>
	<circle cx="144" cy="24" r="3.6"/>
	<circle cx="168" cy="24" r="3.6"/>
	<circle cx="216" cy="24" r="3.6"/>
	<path d="M350,153.008v5.984c0.965-0.645,1.601-1.743,1.601-2.992C351.601,154.752,350.965,153.654,350,153.008z"/>
	<path d="M350,177.008v5.984c0.965-0.645,1.601-1.743,1.601-2.992C351.601,178.752,350.965,177.654,350,177.008z"/>
	<path d="M350,225.008v5.984c0.965-0.646,1.601-1.743,1.601-2.992C351.601,226.752,350.965,225.653,350,225.008z"/>
	<path d="M350,201.008v5.984c0.965-0.646,1.601-1.743,1.601-2.992C351.601,202.752,350.965,201.653,350,201.008z"/>
	<path d="M350,57.008v5.984c0.965-0.645,1.601-1.743,1.601-2.992C351.601,58.752,350.965,57.654,350,57.008z"/>
	<path d="M350,249.008v5.984c0.965-0.646,1.601-1.743,1.601-2.992C351.601,250.752,350.965,249.653,350,249.008z"/>
	<path d="M350,105.008v5.984c0.965-0.645,1.601-1.743,1.601-2.992C351.601,106.752,350.965,105.654,350,105.008z"/>
	<path d="M350,273.008v5.984c0.965-0.646,1.601-1.743,1.601-2.992C351.601,274.752,350.965,273.653,350,273.008z"/>
	<path d="M350,81.008v5.984c0.965-0.645,1.601-1.743,1.601-2.992C351.601,82.752,350.965,81.654,350,81.008z"/>
	<path d="M350,129.008v5.984c0.965-0.645,1.601-1.743,1.601-2.992C351.601,130.752,350.965,129.654,350,129.008z"/>
</g>
</svg>
